<svg width="41" height="40" viewBox="0 0 41 40" fill="none" xmlns="http://www.w3.org/2000/svg">
<path d="M5.6875 27.75L12.75 34.875L15.5625 32.375L8.1875 24.9375L5.6875 27.75Z" fill="#EEECDE"/>
<path d="M39.25 1.24982C39.25 1.24982 30.875 0.812319 25.125 6.56232C22.875 8.81232 19.3125 12.6248 15.875 16.4373H8.1875L3.1875 21.4373L10.0625 22.8748L9.8125 23.1248L17.375 30.6873L17.625 30.4373L19.0625 37.3123L24 32.3748V24.6873C27.8125 21.2498 31.625 17.6873 33.9375 15.3748C39.6875 9.62482 39.25 1.24982 39.25 1.24982ZM29.5 14.4998C29.1489 14.8456 28.7034 15.0799 28.2195 15.1733C27.7356 15.2667 27.2349 15.2149 26.7803 15.0246C26.3257 14.8343 25.9375 14.5138 25.6645 14.1035C25.3915 13.6932 25.2458 13.2114 25.2458 12.7186C25.2458 12.2257 25.3915 11.7439 25.6645 11.3336C25.9375 10.9233 26.3257 10.6029 26.7803 10.4125C27.2349 10.2222 27.7356 10.1705 28.2195 10.2638C28.7034 10.3572 29.1489 10.5915 29.5 10.9373C29.7362 11.1699 29.9238 11.4472 30.0518 11.753C30.1799 12.0588 30.2458 12.387 30.2458 12.7186C30.2458 13.0501 30.1799 13.3783 30.0518 13.6841C29.9238 13.9899 29.7362 14.2672 29.5 14.4998Z" fill="#EEECDE"/>
<path d="M1.75366 38.75C3.24473 38.8669 4.74129 38.6077 6.10622 37.9962C7.47115 37.3847 8.6608 36.4405 9.56616 35.25L5.25366 30.875C4.04935 31.7822 3.09605 32.9813 2.48368 34.3592C1.8713 35.737 1.62006 37.2481 1.75366 38.75Z" fill="#EEECDE"/>
</svg>
