<svg width="42" height="42" viewBox="0 0 42 42" fill="none" xmlns="http://www.w3.org/2000/svg">
<path d="M18.375 26.2495H23.625V31.4995H18.375V26.2495Z" fill="#EEECDE"/>
<path d="M38.0625 11.8125H28.875V9.1875C28.8729 7.44766 28.1808 5.77967 26.9506 4.54941C25.7203 3.31916 24.0523 2.62708 22.3125 2.625H19.6875C17.9477 2.62708 16.2797 3.31916 15.0494 4.54941C13.8192 5.77967 13.1271 7.44766 13.125 9.1875V11.8125H3.9375C3.24131 11.8125 2.57363 12.0891 2.08134 12.5813C1.58906 13.0736 1.3125 13.7413 1.3125 14.4375V28.875H15.75V23.625H26.25V28.875H40.6875V14.4375C40.6875 13.7413 40.4109 13.0736 39.9187 12.5813C39.4264 12.0891 38.7587 11.8125 38.0625 11.8125ZM15.75 11.8125V9.1875C15.7512 8.14358 16.1664 7.14277 16.9046 6.40461C17.6428 5.66645 18.6436 5.25122 19.6875 5.25H22.3125C23.3564 5.25122 24.3572 5.66645 25.0954 6.40461C25.8335 7.14277 26.2488 8.14358 26.25 9.1875V11.8125H15.75Z" fill="#EEECDE"/>
<path d="M26.2513 34.1245H15.7513V31.4995H2.625V39.3739H39.375V31.4995H26.2513V34.1245Z" fill="#EEECDE"/>
</svg>
