<svg width="41" height="32" viewBox="0 0 41 32" fill="none" xmlns="http://www.w3.org/2000/svg">
<path d="M40.1073 18.625L33.5448 4.0625L33.3573 3.6875H33.2948C32.7995 2.71347 32.0501 1.89142 31.1259 1.30832C30.2018 0.725218 29.1372 0.40274 28.0448 0.375C26.612 0.376604 25.228 0.896283 24.1483 1.83818C23.0686 2.78008 22.3659 4.08065 22.1698 5.5C21.3014 5.34825 20.4132 5.34825 19.5448 5.5C19.3487 4.08065 18.646 2.78008 17.5663 1.83818C16.4865 0.896283 15.1026 0.376604 13.6698 0.375C12.5731 0.385544 11.4999 0.693376 10.5643 1.2657C9.62879 1.83803 8.86603 2.65342 8.3573 3.625L8.1698 4L1.60729 18.625C1.0617 19.9059 0.80823 21.2922 0.865303 22.6833C0.922377 24.0743 1.28856 25.4352 1.93725 26.6671C2.58594 27.899 3.50086 28.9709 4.61555 29.805C5.73025 30.6392 7.01673 31.2146 8.38156 31.4894C9.7464 31.7643 11.1553 31.7317 12.506 31.3941C13.8567 31.0564 15.1152 30.4222 16.1901 29.5375C17.2651 28.6527 18.1295 27.5396 18.7206 26.2791C19.3117 25.0186 19.6146 23.6422 19.6073 22.25V15.5625C20.4275 15.3535 21.2871 15.3535 22.1073 15.5625V22.25C22.1 23.6422 22.4029 25.0186 22.994 26.2791C23.5851 27.5396 24.4495 28.6527 25.5245 29.5375C26.5994 30.4222 27.8579 31.0564 29.2086 31.3941C30.5593 31.7317 31.9682 31.7643 33.333 31.4894C34.6979 31.2146 35.9843 30.6392 37.099 29.805C38.2137 28.9709 39.1286 27.899 39.7773 26.6671C40.426 25.4352 40.7922 24.0743 40.8493 22.6833C40.9064 21.2922 40.6529 19.9059 40.1073 18.625ZM10.2323 29.125C8.87255 29.125 7.54334 28.7218 6.41275 27.9664C5.28216 27.2109 4.40098 26.1372 3.88062 24.8809C3.36027 23.6247 3.22412 22.2424 3.4894 20.9088C3.75467 19.5751 4.40945 18.3501 5.37094 17.3886C6.33242 16.4272 7.55743 15.7724 8.89105 15.5071C10.2247 15.2418 11.607 15.378 12.8632 15.8983C14.1195 16.4187 15.1932 17.2999 15.9486 18.4305C16.7041 19.561 17.1073 20.8903 17.1073 22.25C17.1073 24.0734 16.383 25.822 15.0937 27.1114C13.8043 28.4007 12.0557 29.125 10.2323 29.125ZM31.4823 29.125C30.1225 29.125 28.7933 28.7218 27.6628 27.9664C26.5322 27.2109 25.651 26.1372 25.1306 24.8809C24.6103 23.6247 24.4741 22.2424 24.7394 20.9088C25.0047 19.5751 25.6595 18.3501 26.6209 17.3886C27.5824 16.4272 28.8074 15.7724 30.1411 15.5071C31.4747 15.2418 32.857 15.378 34.1132 15.8983C35.3695 16.4187 36.4432 17.2999 37.1986 18.4305C37.9541 19.561 38.3573 20.8903 38.3573 22.25C38.3573 24.0734 37.633 25.822 36.3437 27.1114C35.0543 28.4007 33.3057 29.125 31.4823 29.125Z" fill="#EEECDE"/>
</svg>
