<svg width="41" height="40" viewBox="0 0 41 40" fill="none" xmlns="http://www.w3.org/2000/svg">
<path d="M36.3069 21.515C35.9875 20.7431 33.1969 17.2412 33.1969 16.6625C33.1969 15.9944 33.865 13.9406 33.865 12.6538C33.865 6.79875 30.605 0 19.2537 0C8.12875 0 4.46875 8.15 4.46875 12.6538C4.46875 17.1575 5.73438 20.5287 7.14125 22.0069C8.54812 23.485 9.81625 24.8425 9.81625 27.3519C9.82281 28.597 9.4798 29.8189 8.82625 30.8787C8.74137 31.0149 8.71263 31.1787 8.74609 31.3356C8.77955 31.4925 8.87259 31.6303 9.00562 31.72L20.545 39.6169C20.6208 39.6687 20.7071 39.7032 20.7978 39.7179C20.8885 39.7326 20.9813 39.7272 21.0696 39.7019C21.1579 39.6767 21.2396 39.6323 21.3088 39.5719C21.378 39.5115 21.433 39.4366 21.47 39.3525C22.2694 37.5219 24.4469 32.6963 25.18 32.6963C26.5163 32.6963 29.1469 34.0325 31.1931 34.0325C33.2394 34.0325 32.855 29.3 33.4944 27.37C34.1338 25.44 34.5331 24.3075 34.5331 23.3431C37.09 23.0856 36.6287 22.2869 36.3069 21.515ZM26.375 16.3606C26.5476 16.0804 26.6596 15.7671 26.7038 15.4409C26.7481 15.1148 26.7236 14.783 26.6319 14.4669C26.5295 13.9736 26.2925 13.5182 25.9472 13.1513C25.602 12.7844 25.1618 12.5202 24.6756 12.3881C24.0831 12.2403 23.4625 12.2473 22.8735 12.4084C22.2844 12.5695 21.7467 12.8793 21.3119 13.3081C21.198 13.426 21.135 13.5839 21.1365 13.7478C21.1379 13.9116 21.2036 14.0684 21.3195 14.1843C21.4354 14.3001 21.5921 14.3659 21.756 14.3673C21.9199 14.3687 22.0777 14.3057 22.1956 14.1919C22.4728 13.9181 22.8151 13.7195 23.1902 13.6146C23.5654 13.5098 23.9611 13.5022 24.34 13.5925C24.612 13.667 24.8574 13.8166 25.0482 14.0242C25.239 14.2318 25.3674 14.489 25.4187 14.7662C25.4715 14.8954 25.497 15.0341 25.4934 15.1736C25.4899 15.3131 25.4575 15.4504 25.3982 15.5767C25.3389 15.703 25.2541 15.8157 25.1491 15.9076C25.0441 15.9995 24.9212 16.0686 24.7881 16.1106C24.6465 16.1539 24.5252 16.2467 24.4463 16.372C24.3673 16.4972 24.3361 16.6467 24.3581 16.7931C24.1225 16.8231 23.8888 16.8556 23.6294 16.875C21.8019 17.0263 20.3 17.1588 19.0831 17.3044C19.1968 17.1841 19.2582 17.0237 19.2537 16.8582C19.2493 16.6928 19.1794 16.5359 19.0594 16.4219C18.8885 16.2593 18.7637 16.0543 18.6979 15.8278C18.632 15.6013 18.6273 15.3614 18.6844 15.1325C18.7736 14.7966 18.9485 14.4896 19.1921 14.2416C19.4356 13.9937 19.7395 13.8133 20.0738 13.7181C20.2312 13.6657 20.3614 13.5528 20.4357 13.4043C20.5099 13.2559 20.5222 13.084 20.4697 12.9266C20.4172 12.7691 20.3044 12.6389 20.1559 12.5647C20.0075 12.4904 19.8356 12.4782 19.6781 12.5306C19.1385 12.6927 18.6504 12.9928 18.2622 13.4012C17.8739 13.8096 17.599 14.3122 17.4644 14.8594C17.3608 15.2987 17.3739 15.7575 17.5021 16.1903C17.6304 16.6231 17.8694 17.0149 18.1956 17.3269C18.2321 17.3567 18.272 17.382 18.3144 17.4025C16.2144 17.6975 15.1481 18.0681 14.8769 18.7487C14.4319 19.8612 14.2519 22.4988 13.0019 22.4988C12.8326 22.5202 12.6607 22.5027 12.4992 22.4475C12.3378 22.3922 12.1911 22.3008 12.0705 22.1802C11.9498 22.0595 11.8584 21.9128 11.8032 21.7514C11.7479 21.59 11.7304 21.418 11.7519 21.2488C11.7519 20.1069 11.1463 18.7913 10.5313 17.5612C10.6481 17.5235 10.7511 17.4519 10.8272 17.3556C10.9033 17.2592 10.9491 17.1424 10.9588 17.02C10.9777 16.6559 11.0745 16.3001 11.2427 15.9767C11.4109 15.6532 11.6466 15.3696 11.9338 15.145C12.5155 14.701 13.2233 14.4533 13.955 14.4375C14.0253 14.7903 14.1686 15.1245 14.3755 15.4188C14.5825 15.713 14.8486 15.9608 15.1569 16.1462C15.2251 16.1935 15.3021 16.2266 15.3833 16.2438C15.4645 16.261 15.5483 16.2618 15.6298 16.2462C15.7113 16.2306 15.7889 16.199 15.8581 16.1531C15.9273 16.1072 15.9866 16.048 16.0326 15.9789C16.0786 15.9099 16.1105 15.8323 16.1262 15.7508C16.1419 15.6693 16.1413 15.5855 16.1243 15.5043C16.1073 15.4231 16.0743 15.346 16.0272 15.2777C15.9801 15.2093 15.9199 15.1511 15.85 15.1062C15.6224 14.9995 15.4363 14.8207 15.3205 14.5976C15.2047 14.3745 15.1657 14.1194 15.2094 13.8719C15.2707 13.6699 15.391 13.4909 15.5548 13.3578C15.7187 13.2248 15.9185 13.1437 16.1287 13.125C16.2945 13.125 16.4535 13.0592 16.5707 12.9419C16.6879 12.8247 16.7537 12.6658 16.7537 12.5C16.7537 12.3342 16.6879 12.1753 16.5707 12.0581C16.4535 11.9408 16.2945 11.875 16.1287 11.875C15.7095 11.8924 15.303 12.0238 14.9529 12.2551C14.6028 12.4863 14.3224 12.8087 14.1419 13.1875C13.0635 13.1633 12.0095 13.5102 11.1563 14.17C10.6084 14.6019 10.1912 15.1775 9.95125 15.8325C9.67509 14.7397 9.54024 13.6159 9.55 12.4888C9.57059 12.4944 9.59145 12.4989 9.6125 12.5025C9.73406 12.5024 9.85296 12.4669 9.95464 12.4003C10.0563 12.3337 10.1364 12.2389 10.185 12.1275C10.2593 12.0071 10.3617 11.9065 10.4834 11.8343C10.6051 11.7621 10.7425 11.7206 10.8837 11.7131C11.0792 11.6982 11.2748 11.739 11.448 11.8307C11.6213 11.9224 11.765 12.0613 11.8625 12.2312C11.9092 12.2988 11.9687 12.3565 12.0376 12.401C12.1066 12.4456 12.1836 12.4761 12.2644 12.4909C12.3452 12.5057 12.428 12.5044 12.5083 12.4871C12.5886 12.4699 12.6646 12.437 12.7322 12.3903C12.7997 12.3437 12.8574 12.2841 12.902 12.2152C12.9465 12.1462 12.9771 12.0692 12.9918 11.9884C13.0066 11.9077 13.0053 11.8248 12.9881 11.7445C12.9708 11.6643 12.9379 11.5882 12.8912 11.5206C12.7312 11.2628 12.5207 11.04 12.2724 10.8657C12.0241 10.6913 11.743 10.569 11.4462 10.506C11.1494 10.4431 10.8429 10.4408 10.5451 10.4994C10.2474 10.558 9.96462 10.6762 9.71375 10.8469C9.96984 9.34429 10.7272 7.97272 11.8625 6.95562C11.8088 8.50875 12.3625 10.1362 14.0887 10.6038C14.1425 10.6184 14.198 10.6255 14.2537 10.625C14.4051 10.6248 14.5513 10.5697 14.6651 10.4699C14.7789 10.3701 14.8526 10.2323 14.8725 10.0823C14.8925 9.93224 14.8573 9.78005 14.7735 9.65399C14.6897 9.52793 14.5629 9.43657 14.4169 9.39688C12.9762 9.00625 13.0531 7.24813 13.1531 6.50938C13.1702 6.36689 13.1368 6.22292 13.0588 6.1025C13.2231 6.00875 13.3969 5.92 13.5756 5.83375C13.6131 5.94155 13.6796 6.0369 13.7678 6.10926C13.856 6.18162 13.9626 6.22816 14.0756 6.24375C14.5456 6.29144 15.0006 6.43616 15.4118 6.66875C15.8229 6.90135 16.1814 7.21675 16.4644 7.595C16.7659 8.04782 16.8943 8.59402 16.8263 9.13375C16.1155 9.28257 15.4773 9.67061 15.0181 10.2331C14.9668 10.2972 14.9287 10.3708 14.9058 10.4497C14.8829 10.5285 14.8758 10.6111 14.8849 10.6927C14.8939 10.7743 14.919 10.8533 14.9586 10.9252C14.9982 10.9972 15.0515 11.0606 15.1156 11.1119C15.1797 11.1632 15.2533 11.2013 15.3322 11.2242C15.411 11.2471 15.4936 11.2542 15.5752 11.2451C15.6568 11.2361 15.7358 11.211 15.8077 11.1714C15.8797 11.1318 15.9431 11.0785 15.9944 11.0144C16.2008 10.7647 16.4657 10.57 16.7656 10.4475C17.0655 10.325 17.391 10.2787 17.7131 10.3125C17.9131 10.3201 18.1079 10.3781 18.2794 10.4812C18.451 10.5842 18.5937 10.7289 18.6944 10.9019C18.7311 10.9753 18.7819 11.0408 18.844 11.0945C18.906 11.1483 18.978 11.1893 19.0559 11.2153C19.1338 11.2412 19.216 11.2516 19.2979 11.2457C19.3798 11.2399 19.4597 11.218 19.5331 11.1812C19.6065 11.1445 19.672 11.0937 19.7258 11.0317C19.7796 10.9696 19.8206 10.8976 19.8465 10.8197C19.8725 10.7419 19.8828 10.6596 19.877 10.5777C19.8711 10.4958 19.8492 10.4159 19.8125 10.3425C19.64 10.0186 19.3942 9.7396 19.0947 9.52766C18.7952 9.31572 18.4503 9.17676 18.0875 9.12187C18.1501 8.335 17.9429 7.55027 17.5 6.89687C16.9401 6.09882 16.1298 5.51062 15.1975 5.22563C15.5045 5.13698 15.8152 5.0617 16.1287 5C17.0166 4.82887 17.9183 4.74037 18.8225 4.73563C18.8153 4.84281 18.8363 4.95002 18.8833 5.0466C18.9304 5.14319 19.0018 5.2258 19.0906 5.28625C19.5157 5.54003 19.8357 5.93786 19.9925 6.40748C20.1493 6.8771 20.1324 7.38737 19.945 7.84563C19.8708 7.9939 19.8586 8.16556 19.911 8.32286C19.9634 8.48016 20.0761 8.6102 20.2244 8.68437C20.3726 8.75855 20.5443 8.77079 20.7016 8.7184C20.8589 8.66601 20.9889 8.55327 21.0631 8.405C21.3377 7.81149 21.4237 7.14807 21.3096 6.50416C21.1955 5.86024 20.8868 5.26678 20.425 4.80375C21.294 4.88463 22.1526 5.05341 22.9875 5.3075C22.9376 5.4466 22.9394 5.59898 22.9925 5.73688C23.6325 7.33563 23.2831 8.72875 22.055 9.46437C21.9129 9.54966 21.8104 9.68791 21.7702 9.84873C21.73 10.0095 21.7553 10.1797 21.8406 10.3219C21.9259 10.464 22.0642 10.5665 22.225 10.6067C22.3858 10.6469 22.556 10.6215 22.6981 10.5363C24.3169 9.565 24.9069 7.79313 24.33 5.8275C25.1751 6.2177 25.9458 6.75215 26.6075 7.40687C26.5218 7.47689 26.4564 7.56864 26.4183 7.67253C26.3801 7.77642 26.3706 7.88865 26.3906 7.9975C26.5862 8.9975 26.5081 9.7475 26.1663 10.1644C25.9993 10.3319 25.7971 10.4602 25.5744 10.5398C25.3517 10.6195 25.1141 10.6486 24.8787 10.625C24.713 10.625 24.554 10.6908 24.4368 10.8081C24.3196 10.9253 24.2537 11.0842 24.2537 11.25C24.2537 11.4158 24.3196 11.5747 24.4368 11.6919C24.554 11.8092 24.713 11.875 24.8787 11.875C25.2994 11.9045 25.7213 11.8372 26.1119 11.6784C26.5026 11.5196 26.8517 11.2734 27.1325 10.9587C27.5769 10.3682 27.7935 9.63729 27.7425 8.9C28.1586 9.63233 28.4577 10.4253 28.6287 11.25C29.0625 13.3162 29.2775 15.3787 26.375 16.3606Z" fill="#EEECDE"/>
</svg>
