<svg width="41" height="40" viewBox="0 0 41 40" fill="none" xmlns="http://www.w3.org/2000/svg">
<g clip-path="url(#clip0_507_3284)">
<path d="M20.332 0.4375L-0.792969 17.0625H41.457L20.332 0.4375Z" fill="#EEECDE"/>
<path d="M37.832 22.0625C38.1636 22.0625 38.4815 21.9308 38.7159 21.6964C38.9503 21.462 39.082 21.144 39.082 20.8125C39.082 20.481 38.9503 20.163 38.7159 19.9286C38.4815 19.6942 38.1636 19.5625 37.832 19.5625H29.082C28.7505 19.5625 28.4326 19.6942 28.1981 19.9286C27.9637 20.163 27.832 20.481 27.832 20.8125C27.832 21.144 27.9637 21.462 28.1981 21.6964C28.4326 21.9308 28.7505 22.0625 29.082 22.0625V32.0625H24.082V22.0625H25.332C25.6636 22.0625 25.9815 21.9308 26.2159 21.6964C26.4503 21.462 26.582 21.144 26.582 20.8125C26.582 20.481 26.4503 20.163 26.2159 19.9286C25.9815 19.6942 25.6636 19.5625 25.332 19.5625H15.332C15.0005 19.5625 14.6826 19.6942 14.4481 19.9286C14.2137 20.163 14.082 20.481 14.082 20.8125C14.082 21.144 14.2137 21.462 14.4481 21.6964C14.6826 21.9308 15.0005 22.0625 15.332 22.0625H16.582V32.0625H11.582V22.0625C11.9136 22.0625 12.2315 21.9308 12.4659 21.6964C12.7003 21.462 12.832 21.144 12.832 20.8125C12.832 20.481 12.7003 20.163 12.4659 19.9286C12.2315 19.6942 11.9136 19.5625 11.582 19.5625H2.83203C2.50051 19.5625 2.18257 19.6942 1.94815 19.9286C1.71373 20.163 1.58203 20.481 1.58203 20.8125C1.58203 21.144 1.71373 21.462 1.94815 21.6964C2.18257 21.9308 2.50051 22.0625 2.83203 22.0625H4.08203V32.0625H2.83203C2.50051 32.0625 2.18257 32.1942 1.94815 32.4286C1.71373 32.663 1.58203 32.981 1.58203 33.3125C1.58203 33.644 1.71373 33.962 1.94815 34.1964C2.18257 34.4308 2.50051 34.5625 2.83203 34.5625H37.832C38.1636 34.5625 38.4815 34.4308 38.7159 34.1964C38.9503 33.962 39.082 33.644 39.082 33.3125C39.082 32.981 38.9503 32.663 38.7159 32.4286C38.4815 32.1942 38.1636 32.0625 37.832 32.0625H36.582V22.0625H37.832ZM39.082 37.0625H1.58203C1.25051 37.0625 0.932568 37.1942 0.698148 37.4286C0.463727 37.663 0.332031 37.981 0.332031 38.3125C0.332031 38.644 0.463727 38.962 0.698148 39.1964C0.932568 39.4308 1.25051 39.5625 1.58203 39.5625H39.082C39.4136 39.5625 39.7315 39.4308 39.9659 39.1964C40.2003 38.962 40.332 38.644 40.332 38.3125C40.332 37.981 40.2003 37.663 39.9659 37.4286C39.7315 37.1942 39.4136 37.0625 39.082 37.0625Z" fill="#EEECDE"/>
</g>
<defs>
<clipPath id="clip0_507_3284">
<rect width="40" height="40" fill="white" transform="translate(0.332031)"/>
</clipPath>
</defs>
</svg>
