<svg width="45" height="44" viewBox="0 0 45 44" fill="none" xmlns="http://www.w3.org/2000/svg">
<path d="M26.3785 30.1813C21.2223 29.4938 21.291 27.6375 21.291 26.675V25.0938C23.1473 23.4438 24.041 20.6938 24.041 17.6V12.7875C24.041 7.5625 20.5348 5.5 17.166 5.5C13.7973 5.5 10.291 7.5625 10.291 12.7875V17.6C10.291 20.6938 11.2535 23.375 13.1098 25.025V26.675C13.1098 27.7062 13.1098 29.425 8.02227 30.1813C2.93477 30.9375 2.04102 35.75 2.04102 35.75V38.5H32.291V35.75C32.291 35.75 32.291 31.075 26.3785 30.1813Z" fill="#EEECDE"/>
<path d="M38.4098 25.7127C34.216 24.8877 34.216 23.6502 34.216 22.8252V21.519C35.0468 20.7355 35.7028 19.7856 36.1411 18.7312C36.5795 17.6768 36.7903 16.5417 36.7598 15.4002V11.4127C36.7598 7.15023 33.666 5.50023 30.916 5.50023C29.4659 5.47147 28.0527 5.95878 26.9285 6.87523C26.539 7.29735 26.1934 7.75806 25.8973 8.25023C26.4999 9.68645 26.804 11.2303 26.791 12.7877V17.6002C26.791 18.0127 26.791 18.4252 26.7223 18.769L27.5473 21.4502V22.7565C27.5473 23.444 27.5473 24.3377 25.416 25.094L24.6598 25.3002L24.041 26.194V26.6752C24.8864 27.0631 25.7946 27.2959 26.7223 27.3627C31.2598 27.9815 33.5285 30.5252 34.4223 32.8627H43.291V30.2502C43.291 30.2502 43.291 26.6065 38.4098 25.7127Z" fill="#EEECDE"/>
</svg>
