<svg width="41" height="40" viewBox="0 0 41 40" fill="none" xmlns="http://www.w3.org/2000/svg">
<path d="M36.6643 21.515C36.3449 20.7431 33.5543 17.2412 33.5543 16.6625C33.5543 15.9944 34.2224 13.9406 34.2224 12.6538C34.2224 6.79875 30.9624 0 19.6112 0C8.48617 0 4.82617 8.15 4.82617 12.6538C4.82617 17.1575 6.0918 20.5287 7.49867 22.0069C8.90555 23.485 10.1737 24.8425 10.1737 27.3519C10.1802 28.597 9.83723 29.8189 9.18367 30.8787C9.09879 31.0149 9.07005 31.1787 9.10351 31.3356C9.13697 31.4925 9.23001 31.6303 9.36305 31.72L20.9024 39.6169C20.9782 39.6687 21.0646 39.7032 21.1552 39.7179C21.2459 39.7326 21.3387 39.7272 21.427 39.7019C21.5153 39.6767 21.597 39.6323 21.6662 39.5719C21.7354 39.5115 21.7905 39.4366 21.8274 39.3525C22.6268 37.5219 24.8043 32.6963 25.5374 32.6963C26.8737 32.6963 29.5043 34.0325 31.5505 34.0325C33.5968 34.0325 33.2124 29.3 33.8518 27.37C34.4912 25.44 34.8905 24.3075 34.8905 23.3431C37.4474 23.0856 36.9862 22.2869 36.6643 21.515ZM26.7324 16.3606C26.905 16.0804 27.017 15.7671 27.0612 15.4409C27.1055 15.1148 27.081 14.783 26.9893 14.4669C26.8869 13.9736 26.65 13.5182 26.3047 13.1513C25.9594 12.7844 25.5192 12.5202 25.033 12.3881C24.4405 12.2403 23.82 12.2473 23.2309 12.4084C22.6419 12.5695 22.1041 12.8793 21.6693 13.3081C21.5554 13.426 21.4925 13.5839 21.4939 13.7478C21.4953 13.9116 21.561 14.0684 21.6769 14.1843C21.7928 14.3001 21.9495 14.3659 22.1134 14.3673C22.2773 14.3687 22.4352 14.3057 22.553 14.1919C22.8302 13.9181 23.1725 13.7195 23.5477 13.6146C23.9228 13.5098 24.3185 13.5022 24.6974 13.5925C24.9694 13.667 25.2148 13.8166 25.4056 14.0242C25.5964 14.2318 25.7249 14.489 25.7762 14.7662C25.829 14.8954 25.8544 15.0341 25.8508 15.1736C25.8473 15.3131 25.8149 15.4504 25.7556 15.5767C25.6964 15.703 25.6115 15.8157 25.5065 15.9076C25.4015 15.9995 25.2786 16.0686 25.1455 16.1106C25.004 16.1539 24.8826 16.2467 24.8037 16.372C24.7248 16.4972 24.6935 16.6467 24.7155 16.7931C24.4799 16.8231 24.2462 16.8556 23.9868 16.875C22.1593 17.0263 20.6574 17.1588 19.4405 17.3044C19.5542 17.1841 19.6156 17.0237 19.6111 16.8582C19.6067 16.6928 19.5368 16.5359 19.4168 16.4219C19.2459 16.2593 19.1212 16.0543 19.0553 15.8278C18.9894 15.6013 18.9848 15.3614 19.0418 15.1325C19.131 14.7966 19.3059 14.4896 19.5495 14.2416C19.7931 13.9937 20.0969 13.8133 20.4312 13.7181C20.5886 13.6657 20.7188 13.5528 20.7931 13.4043C20.8673 13.2559 20.8796 13.084 20.8271 12.9266C20.7746 12.7691 20.6618 12.6389 20.5133 12.5647C20.3649 12.4904 20.193 12.4782 20.0355 12.5306C19.4959 12.6927 19.0078 12.9928 18.6196 13.4012C18.2314 13.8096 17.9564 14.3122 17.8218 14.8594C17.7183 15.2987 17.7313 15.7575 17.8595 16.1903C17.9878 16.6231 18.2268 17.0149 18.553 17.3269C18.5895 17.3567 18.6294 17.382 18.6718 17.4025C16.5718 17.6975 15.5055 18.0681 15.2343 18.7487C14.7893 19.8612 14.6093 22.4988 13.3593 22.4988C13.19 22.5202 13.0181 22.5027 12.8566 22.4475C12.6952 22.3922 12.5485 22.3008 12.4279 22.1802C12.3072 22.0595 12.2158 21.9128 12.1606 21.7514C12.1054 21.59 12.0878 21.418 12.1093 21.2488C12.1093 20.1069 11.5037 18.7913 10.8887 17.5612C11.0055 17.5235 11.1085 17.4519 11.1846 17.3556C11.2607 17.2592 11.3065 17.1424 11.3162 17.02C11.3351 16.6559 11.4319 16.3001 11.6001 15.9767C11.7683 15.6532 12.004 15.3696 12.2912 15.145C12.873 14.701 13.5807 14.4533 14.3124 14.4375C14.3828 14.7903 14.526 15.1245 14.733 15.4188C14.9399 15.713 15.206 15.9608 15.5143 16.1462C15.5825 16.1935 15.6595 16.2266 15.7407 16.2438C15.8219 16.261 15.9057 16.2618 15.9872 16.2462C16.0688 16.2306 16.1464 16.199 16.2155 16.1531C16.2847 16.1072 16.344 16.048 16.39 15.9789C16.4361 15.9099 16.4679 15.8323 16.4836 15.7508C16.4994 15.6693 16.4987 15.5855 16.4817 15.5043C16.4647 15.4231 16.4317 15.346 16.3846 15.2777C16.3375 15.2093 16.2773 15.1511 16.2074 15.1062C15.9798 14.9995 15.7937 14.8207 15.6779 14.5976C15.5622 14.3745 15.5231 14.1194 15.5668 13.8719C15.6281 13.6699 15.7484 13.4909 15.9123 13.3578C16.0761 13.2248 16.2759 13.1437 16.4862 13.125C16.6519 13.125 16.8109 13.0592 16.9281 12.9419C17.0453 12.8247 17.1112 12.6658 17.1112 12.5C17.1112 12.3342 17.0453 12.1753 16.9281 12.0581C16.8109 11.9408 16.6519 11.875 16.4862 11.875C16.0669 11.8924 15.6604 12.0238 15.3103 12.2551C14.9602 12.4863 14.6798 12.8087 14.4993 13.1875C13.4209 13.1633 12.367 13.5102 11.5137 14.17C10.9658 14.6019 10.5487 15.1775 10.3087 15.8325C10.0325 14.7397 9.89766 13.6159 9.90742 12.4888C9.92802 12.4944 9.94888 12.4989 9.96992 12.5025C10.0915 12.5024 10.2104 12.4669 10.3121 12.4003C10.4137 12.3337 10.4938 12.2389 10.5424 12.1275C10.6167 12.0071 10.7191 11.9065 10.8408 11.8343C10.9625 11.7621 11.0999 11.7206 11.2412 11.7131C11.4366 11.6982 11.6322 11.739 11.8055 11.8307C11.9787 11.9224 12.1224 12.0613 12.2199 12.2312C12.2666 12.2988 12.3261 12.3565 12.395 12.401C12.464 12.4456 12.5411 12.4761 12.6218 12.4909C12.7026 12.5057 12.7855 12.5044 12.8657 12.4871C12.946 12.4699 13.0221 12.437 13.0896 12.3903C13.1572 12.3437 13.2149 12.2841 13.2594 12.2152C13.304 12.1462 13.3345 12.0692 13.3493 11.9884C13.364 11.9077 13.3627 11.8248 13.3455 11.7445C13.3282 11.6643 13.2953 11.5882 13.2487 11.5206C13.0887 11.2628 12.8782 11.04 12.6298 10.8657C12.3815 10.6913 12.1005 10.569 11.8036 10.506C11.5068 10.4431 11.2003 10.4408 10.9026 10.4994C10.6048 10.558 10.322 10.6762 10.0712 10.8469C10.3273 9.34429 11.0846 7.97272 12.2199 6.95562C12.1662 8.50875 12.7199 10.1362 14.4462 10.6038C14.4999 10.6184 14.5555 10.6255 14.6112 10.625C14.7625 10.6248 14.9087 10.5697 15.0225 10.4699C15.1363 10.3701 15.21 10.2323 15.23 10.0823C15.2499 9.93224 15.2147 9.78005 15.1309 9.65399C15.0471 9.52793 14.9204 9.43657 14.7743 9.39688C13.3337 9.00625 13.4105 7.24813 13.5105 6.50938C13.5276 6.36689 13.4942 6.22292 13.4162 6.1025C13.5805 6.00875 13.7543 5.92 13.933 5.83375C13.9705 5.94155 14.037 6.0369 14.1252 6.10926C14.2135 6.18162 14.32 6.22816 14.433 6.24375C14.903 6.29144 15.358 6.43616 15.7692 6.66875C16.1804 6.90135 16.5388 7.21675 16.8218 7.595C17.1233 8.04782 17.2517 8.59402 17.1837 9.13375C16.4729 9.28257 15.8347 9.67061 15.3755 10.2331C15.3242 10.2972 15.2861 10.3708 15.2632 10.4497C15.2404 10.5285 15.2332 10.6111 15.2423 10.6927C15.2514 10.7743 15.2764 10.8533 15.316 10.9252C15.3556 10.9972 15.4089 11.0606 15.473 11.1119C15.5371 11.1632 15.6107 11.2013 15.6896 11.2242C15.7684 11.2471 15.851 11.2542 15.9326 11.2451C16.0142 11.2361 16.0932 11.211 16.1652 11.1714C16.2371 11.1318 16.3005 11.0785 16.3518 11.0144C16.5582 10.7647 16.8231 10.57 17.123 10.4475C17.4229 10.325 17.7484 10.2787 18.0705 10.3125C18.2705 10.3201 18.4653 10.3781 18.6369 10.4812C18.8084 10.5842 18.9511 10.7289 19.0518 10.9019C19.0885 10.9753 19.1394 11.0408 19.2014 11.0945C19.2634 11.1483 19.3354 11.1893 19.4133 11.2153C19.4912 11.2412 19.5734 11.2516 19.6553 11.2457C19.7372 11.2399 19.8171 11.218 19.8905 11.1812C19.964 11.1445 20.0294 11.0937 20.0832 11.0317C20.137 10.9696 20.178 10.8976 20.2039 10.8197C20.2299 10.7419 20.2402 10.6596 20.2344 10.5777C20.2286 10.4958 20.2067 10.4159 20.1699 10.3425C19.9975 10.0186 19.7517 9.7396 19.4521 9.52766C19.1526 9.31572 18.8077 9.17676 18.4449 9.12187C18.5075 8.335 18.3003 7.55027 17.8574 6.89687C17.2976 6.09882 16.4872 5.51062 15.5549 5.22563C15.8619 5.13698 16.1726 5.0617 16.4862 5C17.374 4.82887 18.2758 4.74037 19.1799 4.73563C19.1727 4.84281 19.1937 4.95002 19.2407 5.0466C19.2878 5.14319 19.3592 5.2258 19.448 5.28625C19.8732 5.54003 20.1931 5.93786 20.3499 6.40748C20.5067 6.8771 20.4898 7.38737 20.3024 7.84563C20.2282 7.9939 20.216 8.16556 20.2684 8.32286C20.3208 8.48016 20.4335 8.6102 20.5818 8.68437C20.7301 8.75855 20.9017 8.77079 21.059 8.7184C21.2163 8.66601 21.3464 8.55327 21.4205 8.405C21.6951 7.81149 21.7812 7.14807 21.6671 6.50416C21.553 5.86024 21.2442 5.26678 20.7824 4.80375C21.6514 4.88463 22.51 5.05341 23.3449 5.3075C23.2951 5.4466 23.2968 5.59898 23.3499 5.73688C23.9899 7.33563 23.6405 8.72875 22.4124 9.46437C22.2703 9.54966 22.1678 9.68791 22.1276 9.84873C22.0874 10.0095 22.1128 10.1797 22.198 10.3219C22.2833 10.464 22.4216 10.5665 22.5824 10.6067C22.7432 10.6469 22.9134 10.6215 23.0555 10.5363C24.6743 9.565 25.2643 7.79313 24.6874 5.8275C25.5325 6.2177 26.3032 6.75215 26.9649 7.40687C26.8792 7.47689 26.8139 7.56864 26.7757 7.67253C26.7376 7.77642 26.728 7.88865 26.748 7.9975C26.9437 8.9975 26.8655 9.7475 26.5237 10.1644C26.3567 10.3319 26.1546 10.4602 25.9319 10.5398C25.7092 10.6195 25.4715 10.6486 25.2362 10.625C25.0704 10.625 24.9114 10.6908 24.7942 10.8081C24.677 10.9253 24.6112 11.0842 24.6112 11.25C24.6112 11.4158 24.677 11.5747 24.7942 11.6919C24.9114 11.8092 25.0704 11.875 25.2362 11.875C25.6569 11.9045 26.0787 11.8372 26.4694 11.6784C26.86 11.5196 27.2091 11.2734 27.4899 10.9587C27.9343 10.3682 28.1509 9.63729 28.0999 8.9C28.5161 9.63233 28.8151 10.4253 28.9862 11.25C29.4199 13.3162 29.6349 15.3787 26.7324 16.3606Z" fill="#EEECDE"/>
</svg>
