<svg width="36" height="36" viewBox="0 0 36 36" fill="none" xmlns="http://www.w3.org/2000/svg">
<g clip-path="url(#clip0_276_5267)">
<path d="M35.9699 6.44396L31.7861 9.08771C31.6462 9.17618 31.4819 9.21801 31.3167 9.20719C31.1516 9.19638 30.9941 9.13347 30.8669 9.02752L29.1418 7.58977C29.021 7.48913 28.9334 7.35448 28.8903 7.20333L28.3424 5.28802C28.2943 5.11978 28.3039 4.94025 28.3698 4.77811C28.4356 4.61598 28.554 4.48061 28.7058 4.39365L33.4871 1.65596C32.404 0.746121 31.0721 0.183503 29.6648 0.0413811C28.2574 -0.100741 26.8399 0.184219 25.5968 0.859149C24.3537 1.53408 23.3427 2.5677 22.6954 3.82538C22.0481 5.08307 21.7945 6.50654 21.9676 7.9104C22.0192 8.27482 21.9865 8.64621 21.872 8.996C21.7575 9.34579 21.5643 9.66467 21.3073 9.92808L9.92675 21.3086C9.66572 21.5649 9.34929 21.7577 9.0019 21.8723C8.6545 21.9869 8.28541 22.0202 7.92313 21.9695C7.63137 21.9321 7.33752 21.9133 7.04338 21.9133C6.02683 21.9063 5.02097 22.1209 4.09583 22.5423C3.17069 22.9636 2.3485 23.5816 1.68651 24.3531C1.02451 25.1245 0.538625 26.031 0.262669 27.0094C-0.0132879 27.9878 -0.0726807 29.0146 0.0886252 30.0183L4.83781 27.0157C4.97769 26.9272 5.14202 26.8854 5.30717 26.8962C5.47232 26.907 5.62979 26.9699 5.75694 27.0759L7.48213 28.5136C7.60285 28.6143 7.69046 28.7489 7.73356 28.9001L8.28144 30.8176C8.32961 30.9859 8.32 31.1654 8.25412 31.3275C8.18825 31.4897 8.06993 31.625 7.91806 31.712L2.85556 34.6117C4.18927 35.6064 5.83359 36.0938 7.49394 35.9865C8.45774 35.9252 9.39861 35.6662 10.2581 35.2258C11.1175 34.7853 11.8771 34.1727 12.4897 33.4261C13.1023 32.6795 13.5548 31.8149 13.8189 30.886C14.083 29.9571 14.1532 28.9837 14.0251 28.0265C13.9712 27.6655 14.0016 27.2968 14.1138 26.9494C14.226 26.602 14.4171 26.2853 14.672 26.024L26.012 14.6818C26.2734 14.4244 26.5908 14.231 26.9393 14.1166C27.2879 14.0022 27.6582 13.97 28.0213 14.0225C29.0161 14.156 30.0281 14.0753 30.9892 13.7857C31.9504 13.4962 32.8385 13.0045 33.5941 12.3437C34.3497 11.6828 34.9553 10.8681 35.3703 9.95412C35.7853 9.04011 36.0001 8.04795 36.0003 7.04415C36.0003 6.84165 35.9868 6.64196 35.9699 6.44396Z" fill="#EEECDE"/>
<path d="M0.0300598 6.44408L4.21393 9.08783C4.35381 9.1763 4.51814 9.21813 4.68329 9.20732C4.84844 9.1965 5.00591 9.1336 5.13306 9.02764L6.85825 7.58989C6.97897 7.48926 7.06658 7.3546 7.10968 7.20346L7.65756 5.28814C7.70573 5.1199 7.69612 4.94037 7.63025 4.77824C7.56437 4.6161 7.44605 4.48074 7.29418 4.39377L2.51293 1.65608C3.59598 0.746243 4.92791 0.183625 6.33524 0.0415031C7.74258 -0.100619 9.1601 0.184342 10.4032 0.859271C11.6463 1.5342 12.6573 2.56782 13.3046 3.82551C13.9519 5.08319 14.2055 6.50666 14.0324 7.91052C13.9808 8.27494 14.0135 8.64633 14.128 8.99612C14.2425 9.34592 14.4357 9.66479 14.6927 9.92821L26.0732 21.3087C26.3343 21.565 26.6507 21.7579 26.9981 21.8725C27.3455 21.9871 27.7146 22.0203 28.0769 21.9696C28.3686 21.9322 28.6625 21.9134 28.9566 21.9134C29.9732 21.9064 30.979 22.121 31.9042 22.5424C32.8293 22.9638 33.6515 23.5817 34.3135 24.3532C34.9755 25.1247 35.4614 26.0312 35.7373 27.0096C36.0133 27.988 36.0727 29.0148 35.9114 30.0185L31.1622 27.0158C31.0223 26.9274 30.858 26.8855 30.6928 26.8963C30.5277 26.9072 30.3702 26.9701 30.2431 27.076L28.5179 28.5138C28.3972 28.6144 28.3095 28.7491 28.2664 28.9002L27.7186 30.8178C27.6704 30.986 27.68 31.1655 27.7459 31.3277C27.8117 31.4898 27.9301 31.6252 28.0819 31.7121L33.1444 34.6118C31.8107 35.6066 30.1664 36.0939 28.5061 35.9866C27.5423 35.9253 26.6014 35.6663 25.7419 35.2259C24.8825 34.7854 24.1229 34.1728 23.5103 33.4263C22.8977 32.6797 22.4452 31.815 22.1811 30.8861C21.917 29.9572 21.8468 28.9839 21.9749 28.0266C22.0288 27.6656 21.9984 27.2969 21.8862 26.9495C21.774 26.6022 21.5829 26.2854 21.328 26.0241L9.988 14.6819C9.72659 14.4245 9.40921 14.2311 9.06065 14.1167C8.7121 14.0024 8.34181 13.9702 7.97875 14.0226C6.98386 14.1561 5.97192 14.0754 5.01078 13.7859C4.04964 13.4963 3.1615 13.0046 2.40591 12.3438C1.65031 11.683 1.04472 10.8682 0.629715 9.95424C0.214718 9.04024 -9.15527e-05 8.04807 -0.00031662 7.04427C-0.00031662 6.84177 0.0131836 6.64208 0.0300598 6.44408Z" fill="#EEECDE"/>
</g>
<defs>
<clipPath id="clip0_276_5267">
<rect width="36" height="36" fill="white"/>
</clipPath>
</defs>
</svg>
