<svg width="44" height="40" viewBox="0 0 44 40" fill="none" xmlns="http://www.w3.org/2000/svg">
<g clip-path="url(#clip0_276_5287)">
<path d="M40.1406 37.5H38.7969V12.5H33.4219V37.5H29.3906V18.75H24.0156V37.5H19.9844V25H14.6094V37.5H10.5781V31.25H5.20312V37.5H3.85938C3.50299 37.5 3.1612 37.6317 2.9092 37.8661C2.6572 38.1005 2.51563 38.4185 2.51562 38.75C2.51563 39.0815 2.6572 39.3995 2.9092 39.6339C3.1612 39.8683 3.50299 40 3.85938 40H40.1406C40.497 40 40.8388 39.8683 41.0908 39.6339C41.3428 39.3995 41.4844 39.0815 41.4844 38.75C41.4844 38.4185 41.3428 38.1005 41.0908 37.8661C40.8388 37.6317 40.497 37.5 40.1406 37.5Z" fill="#EEECDE"/>
<path d="M5.875 27.5001C6.16575 27.5001 6.44865 27.4124 6.68125 27.2501L36.5125 5.3126L36.1766 8.6251C36.158 8.7894 36.1746 8.95549 36.2255 9.11377C36.2764 9.27206 36.3605 9.41938 36.473 9.54725C36.5854 9.67511 36.724 9.78096 36.8807 9.85869C37.0374 9.93642 37.2091 9.98449 37.3859 10.0001H37.5203C37.8546 10.0017 38.1775 9.88726 38.426 9.67923C38.6744 9.47121 38.8306 9.18451 38.8641 8.8751L39.6031 1.5001L31.675 0.00010181C31.3186 -0.0662023 30.9485 0.00190526 30.6461 0.189442C30.3437 0.376978 30.1338 0.668581 30.0625 1.0001C29.9912 1.33162 30.0644 1.6759 30.266 1.95721C30.4676 2.23851 30.7811 2.4338 31.1375 2.5001L35.0344 3.2501L5.06875 25.2501C4.84313 25.4075 4.67646 25.627 4.59237 25.8774C4.50828 26.1278 4.51102 26.3965 4.60021 26.6454C4.68939 26.8943 4.8605 27.1108 5.0893 27.2642C5.31809 27.4176 5.59297 27.5001 5.875 27.5001Z" fill="#EEECDE"/>
</g>
<defs>
<clipPath id="clip0_276_5287">
<rect width="43" height="40" fill="white" transform="translate(0.5)"/>
</clipPath>
</defs>
</svg>
