<svg width="41" height="40" viewBox="0 0 41 40" fill="none" xmlns="http://www.w3.org/2000/svg">
<path d="M36.469 21.515C36.1496 20.7431 33.359 17.2412 33.359 16.6625C33.359 15.9944 34.0271 13.9406 34.0271 12.6537C34.0271 6.79875 30.7671 0 19.4159 0C8.29086 0 4.63086 8.15 4.63086 12.6537C4.63086 17.1575 5.89648 20.5287 7.30336 22.0069C8.71023 23.485 9.97836 24.8425 9.97836 27.3519C9.98492 28.597 9.64191 29.8189 8.98836 30.8787C8.90348 31.0149 8.87474 31.1787 8.9082 31.3356C8.94166 31.4925 9.0347 31.6303 9.16773 31.72L20.7071 39.6169C20.7829 39.6687 20.8692 39.7032 20.9599 39.7179C21.0506 39.7326 21.1434 39.7272 21.2317 39.7019C21.32 39.6767 21.4017 39.6323 21.4709 39.5719C21.5401 39.5115 21.5951 39.4366 21.6321 39.3525C22.4315 37.5219 24.609 32.6962 25.3421 32.6962C26.6784 32.6962 29.309 34.0325 31.3552 34.0325C33.4015 34.0325 33.0171 29.3 33.6565 27.37C34.2959 25.44 34.6952 24.3075 34.6952 23.3431C37.2521 23.0856 36.7909 22.2869 36.469 21.515ZM26.5371 16.3606C26.7097 16.0804 26.8217 15.7671 26.8659 15.4409C26.9102 15.1148 26.8857 14.783 26.794 14.4669C26.6916 13.9736 26.4546 13.5182 26.1094 13.1513C25.7641 12.7844 25.3239 12.5202 24.8377 12.3881C24.2452 12.2403 23.6246 12.2473 23.0356 12.4084C22.4465 12.5695 21.9088 12.8793 21.474 13.3081C21.3601 13.426 21.2971 13.5839 21.2986 13.7477C21.3 13.9116 21.3657 14.0684 21.4816 14.1843C21.5975 14.3001 21.7542 14.3659 21.9181 14.3673C22.082 14.3687 22.2399 14.3057 22.3577 14.1919C22.6349 13.9181 22.9772 13.7195 23.3523 13.6146C23.7275 13.5098 24.1232 13.5021 24.5021 13.5925C24.7741 13.667 25.0195 13.8166 25.2103 14.0242C25.4011 14.2318 25.5295 14.489 25.5809 14.7662C25.6336 14.8954 25.6591 15.0341 25.6555 15.1736C25.652 15.3131 25.6196 15.4504 25.5603 15.5767C25.501 15.703 25.4162 15.8157 25.3112 15.9076C25.2062 15.9995 25.0833 16.0686 24.9502 16.1106C24.8086 16.1539 24.6873 16.2467 24.6084 16.372C24.5295 16.4972 24.4982 16.6467 24.5202 16.7931C24.2846 16.8231 24.0509 16.8556 23.7915 16.875C21.964 17.0262 20.4621 17.1587 19.2452 17.3044C19.3589 17.1841 19.4203 17.0237 19.4158 16.8582C19.4114 16.6928 19.3415 16.5359 19.2215 16.4219C19.0506 16.2593 18.9259 16.0543 18.86 15.8278C18.7941 15.6013 18.7894 15.3614 18.8465 15.1325C18.9357 14.7966 19.1106 14.4896 19.3542 14.2416C19.5977 13.9937 19.9016 13.8133 20.2359 13.7181C20.3933 13.6657 20.5235 13.5528 20.5978 13.4043C20.672 13.2559 20.6843 13.084 20.6318 12.9266C20.5793 12.7691 20.4665 12.6389 20.318 12.5647C20.1696 12.4904 19.9977 12.4782 19.8402 12.5306C19.3006 12.6927 18.8125 12.9928 18.4243 13.4012C18.0361 13.8096 17.7611 14.3122 17.6265 14.8594C17.523 15.2987 17.536 15.7575 17.6642 16.1903C17.7925 16.6231 18.0315 17.0149 18.3577 17.3269C18.3942 17.3567 18.4341 17.382 18.4765 17.4025C16.3765 17.6975 15.3102 18.0681 15.039 18.7487C14.594 19.8612 14.414 22.4987 13.164 22.4987C12.9947 22.5202 12.8228 22.5027 12.6613 22.4475C12.4999 22.3922 12.3532 22.3008 12.2326 22.1802C12.1119 22.0595 12.0205 21.9128 11.9653 21.7514C11.91 21.59 11.8925 21.418 11.914 21.2487C11.914 20.1069 11.3084 18.7912 10.6934 17.5612C10.8102 17.5235 10.9132 17.4519 10.9893 17.3556C11.0654 17.2592 11.1112 17.1424 11.1209 17.02C11.1398 16.6559 11.2366 16.3001 11.4048 15.9767C11.573 15.6532 11.8087 15.3696 12.0959 15.145C12.6777 14.701 13.3854 14.4533 14.1171 14.4375C14.1874 14.7903 14.3307 15.1245 14.5376 15.4188C14.7446 15.713 15.0107 15.9608 15.319 16.1462C15.3872 16.1935 15.4642 16.2266 15.5454 16.2438C15.6266 16.261 15.7104 16.2618 15.7919 16.2462C15.8735 16.2306 15.9511 16.199 16.0202 16.1531C16.0894 16.1072 16.1487 16.048 16.1947 15.9789C16.2407 15.9099 16.2726 15.8323 16.2883 15.7508C16.304 15.6693 16.3034 15.5855 16.2864 15.5043C16.2694 15.4231 16.2364 15.346 16.1893 15.2777C16.1422 15.2093 16.082 15.1511 16.0121 15.1062C15.7845 14.9995 15.5984 14.8207 15.4826 14.5976C15.3668 14.3745 15.3278 14.1194 15.3715 13.8719C15.4328 13.6699 15.5531 13.4909 15.717 13.3578C15.8808 13.2248 16.0806 13.1437 16.2909 13.125C16.4566 13.125 16.6156 13.0591 16.7328 12.9419C16.85 12.8247 16.9159 12.6658 16.9159 12.5C16.9159 12.3342 16.85 12.1753 16.7328 12.0581C16.6156 11.9408 16.4566 11.875 16.2909 11.875C15.8716 11.8924 15.4651 12.0238 15.115 12.2551C14.7649 12.4863 14.4845 12.8087 14.304 13.1875C13.2256 13.1633 12.1716 13.5102 11.3184 14.17C10.7705 14.6019 10.3534 15.1775 10.1134 15.8325C9.8372 14.7397 9.70235 13.6159 9.71211 12.4887C9.7327 12.4944 9.75356 12.4989 9.77461 12.5025C9.89617 12.5024 10.0151 12.4669 10.1167 12.4003C10.2184 12.3337 10.2985 12.2389 10.3471 12.1275C10.4214 12.0071 10.5238 11.9065 10.6455 11.8343C10.7672 11.7621 10.9046 11.7206 11.0459 11.7131C11.2413 11.6982 11.4369 11.739 11.6101 11.8307C11.7834 11.9224 11.9271 12.0613 12.0246 12.2312C12.0713 12.2988 12.1308 12.3565 12.1997 12.401C12.2687 12.4456 12.3458 12.4761 12.4265 12.4909C12.5073 12.5057 12.5901 12.5044 12.6704 12.4871C12.7507 12.4699 12.8267 12.437 12.8943 12.3903C12.9618 12.3436 13.0195 12.2841 13.0641 12.2152C13.1086 12.1462 13.1392 12.0692 13.1539 11.9884C13.1687 11.9077 13.1674 11.8248 13.1502 11.7445C13.1329 11.6642 13.1 11.5882 13.0534 11.5206C12.8934 11.2628 12.6829 11.04 12.4345 10.8657C12.1862 10.6913 11.9051 10.569 11.6083 10.506C11.3115 10.4431 11.005 10.4408 10.7073 10.4994C10.4095 10.558 10.1267 10.6762 9.87586 10.8469C10.1319 9.34429 10.8893 7.97272 12.0246 6.95562C11.9709 8.50875 12.5246 10.1362 14.2509 10.6037C14.3046 10.6184 14.3601 10.6255 14.4159 10.625C14.5672 10.6248 14.7134 10.5697 14.8272 10.4699C14.941 10.3701 15.0147 10.2323 15.0346 10.0823C15.0546 9.93224 15.0194 9.78005 14.9356 9.65399C14.8518 9.52793 14.7251 9.43657 14.579 9.39687C13.1384 9.00625 13.2152 7.24812 13.3152 6.50937C13.3323 6.36689 13.2989 6.22292 13.2209 6.1025C13.3852 6.00875 13.559 5.92 13.7377 5.83375C13.7752 5.94155 13.8417 6.0369 13.9299 6.10926C14.0182 6.18162 14.1247 6.22816 14.2377 6.24375C14.7077 6.29144 15.1627 6.43616 15.5739 6.66875C15.9851 6.90134 16.3435 7.21674 16.6265 7.595C16.928 8.04781 17.0564 8.59402 16.9884 9.13375C16.2776 9.28257 15.6394 9.67061 15.1802 10.2331C15.1289 10.2972 15.0908 10.3708 15.0679 10.4497C15.045 10.5285 15.0379 10.6111 15.047 10.6927C15.056 10.7743 15.0811 10.8533 15.1207 10.9252C15.1603 10.9972 15.2136 11.0606 15.2777 11.1119C15.3418 11.1632 15.4154 11.2013 15.4943 11.2242C15.5731 11.2471 15.6557 11.2542 15.7373 11.2451C15.8189 11.2361 15.8979 11.211 15.9698 11.1714C16.0418 11.1318 16.1052 11.0785 16.1565 11.0144C16.3629 10.7647 16.6278 10.57 16.9277 10.4475C17.2276 10.325 17.5531 10.2787 17.8752 10.3125C18.0752 10.3201 18.27 10.3781 18.4416 10.4812C18.6131 10.5842 18.7558 10.7289 18.8565 10.9019C18.8932 10.9753 18.944 11.0408 19.0061 11.0945C19.0681 11.1483 19.1401 11.1893 19.218 11.2153C19.2959 11.2412 19.3781 11.2516 19.46 11.2457C19.5419 11.2399 19.6218 11.218 19.6952 11.1812C19.7687 11.1445 19.8341 11.0937 19.8879 11.0317C19.9417 10.9696 19.9827 10.8976 20.0086 10.8197C20.0346 10.7418 20.0449 10.6596 20.0391 10.5777C20.0332 10.4958 20.0113 10.4159 19.9746 10.3425C19.8022 10.0186 19.5563 9.7396 19.2568 9.52766C18.9573 9.31572 18.6124 9.17676 18.2496 9.12187C18.3122 8.335 18.105 7.55027 17.6621 6.89687C17.1022 6.09882 16.2919 5.51062 15.3596 5.22562C15.6666 5.13698 15.9773 5.0617 16.2909 5C17.1787 4.82887 18.0805 4.74037 18.9846 4.73562C18.9774 4.84281 18.9984 4.95002 19.0454 5.0466C19.0925 5.14319 19.1639 5.2258 19.2527 5.28625C19.6778 5.54003 19.9978 5.93786 20.1546 6.40748C20.3114 6.8771 20.2945 7.38737 20.1071 7.84562C20.0329 7.9939 20.0207 8.16556 20.0731 8.32286C20.1255 8.48015 20.2382 8.6102 20.3865 8.68437C20.5348 8.75855 20.7064 8.77079 20.8637 8.7184C21.021 8.666 21.1511 8.55327 21.2252 8.405C21.4998 7.81149 21.5859 7.14807 21.4718 6.50415C21.3577 5.86024 21.0489 5.26677 20.5871 4.80375C21.4561 4.88463 22.3147 5.05341 23.1496 5.3075C23.0997 5.44659 23.1015 5.59898 23.1546 5.73687C23.7946 7.33562 23.4452 8.72875 22.2171 9.46437C22.075 9.54966 21.9725 9.68791 21.9323 9.84872C21.8921 10.0095 21.9174 10.1797 22.0027 10.3219C22.088 10.464 22.2263 10.5665 22.3871 10.6067C22.5479 10.6469 22.7181 10.6215 22.8602 10.5362C24.479 9.565 25.069 7.79312 24.4921 5.8275C25.3372 6.2177 26.1079 6.75215 26.7696 7.40687C26.6839 7.47689 26.6186 7.56863 26.5804 7.67253C26.5423 7.77642 26.5327 7.88865 26.5527 7.9975C26.7484 8.9975 26.6702 9.7475 26.3284 10.1644C26.1614 10.3319 25.9592 10.4602 25.7365 10.5398C25.5138 10.6195 25.2762 10.6486 25.0409 10.625C24.8751 10.625 24.7161 10.6908 24.5989 10.8081C24.4817 10.9253 24.4159 11.0842 24.4159 11.25C24.4159 11.4158 24.4817 11.5747 24.5989 11.6919C24.7161 11.8091 24.8751 11.875 25.0409 11.875C25.4615 11.9045 25.8834 11.8372 26.2741 11.6784C26.6647 11.5196 27.0138 11.2734 27.2946 10.9587C27.739 10.3682 27.9556 9.63729 27.9046 8.9C28.3207 9.63233 28.6198 10.4252 28.7909 11.25C29.2246 13.3162 29.4396 15.3787 26.5371 16.3606Z" fill="#EEECDE"/>
</svg>
