<svg width="41" height="40" viewBox="0 0 41 40" fill="none" xmlns="http://www.w3.org/2000/svg">
<path d="M32.9593 7.9375C32.7512 7.68183 32.4506 7.51867 32.1229 7.48356C31.7951 7.44844 31.4668 7.5442 31.2093 7.75C29.2752 9.23566 26.8979 10.0281 24.4593 10C24.263 10.3984 24.1824 10.8439 24.2266 11.2858C24.2708 11.7277 24.438 12.1483 24.7093 12.5C27.6335 12.4779 30.4683 11.489 32.7718 9.6875C33.0275 9.47946 33.1906 9.17885 33.2257 8.8511C33.2608 8.52335 33.1651 8.19499 32.9593 7.9375Z" fill="#EEECDE"/>
<path d="M28.2734 3.8125C24.5859 3.8125 24.3359 1.25 22.0234 1.25C19.7109 1.25 19.3359 3.75 15.7734 3.75C13.2734 3.75 8.27344 0.25 8.27344 2.5C8.27344 4.75 12.2109 8 14.3984 10H24.4609C27.5234 6.75 29.5234 3.8125 28.2734 3.8125ZM24.7109 12.5625H14.3359C11.3359 15.375 4.52344 22.75 4.52344 32.5C4.52344 34.1576 5.18192 35.7473 6.35402 36.9194C7.52612 38.0915 9.11584 38.75 10.7734 38.75H28.2734C29.931 38.75 31.5208 38.0915 32.6929 36.9194C33.865 35.7473 34.5234 34.1576 34.5234 32.5C34.5234 22.8125 27.7734 15.375 24.7109 12.5625ZM20.7734 33V33.75C20.7734 34.0815 20.6417 34.3995 20.4073 34.6339C20.1729 34.8683 19.855 35 19.5234 35C19.1919 35 18.874 34.8683 18.6396 34.6339C18.4051 34.3995 18.2734 34.0815 18.2734 33.75V32.9375C17.2049 32.6616 16.2577 32.04 15.5794 31.1695C14.901 30.299 14.5298 29.2286 14.5234 28.125C14.5234 27.7935 14.6551 27.4755 14.8896 27.2411C15.124 27.0067 15.4419 26.875 15.7734 26.875C16.105 26.875 16.4229 27.0067 16.6573 27.2411C16.8917 27.4755 17.0234 27.7935 17.0234 28.125C17.0234 28.788 17.2868 29.4239 17.7557 29.8928C18.2245 30.3616 18.8604 30.625 19.5234 30.625C20.7109 30.625 22.0234 29.9375 22.0234 28.4375C22.0234 28.0625 22.0234 26.875 19.2734 26.25C15.1484 25.3125 14.5859 22.9375 14.5859 21.625C14.581 20.5466 14.9531 19.5004 15.6379 18.6673C16.3226 17.8342 17.277 17.2665 18.3359 17.0625V16.25C18.3359 15.9185 18.4676 15.6005 18.7021 15.3661C18.9365 15.1317 19.2544 15 19.5859 15C19.9175 15 20.2354 15.1317 20.4698 15.3661C20.7042 15.6005 20.8359 15.9185 20.8359 16.25V17.0625C21.7711 17.3021 22.617 17.8073 23.2713 18.5171C23.9257 19.2269 24.3606 20.1109 24.5234 21.0625C24.5788 21.2323 24.5971 21.412 24.5771 21.5895C24.5571 21.767 24.4993 21.9382 24.4076 22.0914C24.3159 22.2447 24.1924 22.3766 24.0455 22.4781C23.8986 22.5796 23.7316 22.6485 23.5558 22.6801C23.38 22.7116 23.1994 22.7051 23.0263 22.661C22.8533 22.6169 22.6916 22.5363 22.5524 22.4244C22.4131 22.3126 22.2994 22.1723 22.2189 22.0128C22.1385 21.8533 22.0931 21.6785 22.0859 21.5C21.9942 20.893 21.6824 20.3409 21.2098 19.949C20.7372 19.5571 20.137 19.3528 19.5234 19.375C18.3359 19.375 17.0234 20.0625 17.0234 21.5625C17.0234 21.9375 17.0234 23.125 19.7734 23.75C23.8359 24.6875 24.4609 27.0625 24.4609 28.375C24.4833 29.4552 24.1268 30.5092 23.4532 31.3541C22.7796 32.1989 21.8315 32.7812 20.7734 33Z" fill="#EEECDE"/>
<path d="M35.9609 15.25C35.3876 14.4018 34.6147 13.7075 33.7102 13.2279C32.8057 12.7484 31.7972 12.4985 30.7734 12.5C30.4419 12.5 30.124 12.6317 29.8896 12.8661C29.6551 13.1005 29.5234 13.4185 29.5234 13.75C29.5234 14.0815 29.6551 14.3995 29.8896 14.6339C30.124 14.8683 30.4419 15 30.7734 15C31.3876 14.9943 31.9937 15.1394 32.5386 15.4228C33.0835 15.7061 33.5504 16.119 33.8984 16.625C34.0981 16.8534 34.374 17.0015 34.6748 17.0415C34.9755 17.0815 35.2805 17.0108 35.533 16.8425C35.7854 16.6742 35.968 16.4198 36.0468 16.1268C36.1255 15.8338 36.095 15.5222 35.9609 15.25Z" fill="#EEECDE"/>
</svg>
