<svg width="38" height="38" viewBox="0 0 38 38" fill="none" xmlns="http://www.w3.org/2000/svg">
<g clip-path="url(#clip0_276_5281)">
<path d="M19.0004 0.415527L-1.06836 16.2093H39.0691L19.0004 0.415527Z" fill="#EEECDE"/>
<path d="M35.625 20.9595C35.9399 20.9595 36.242 20.8344 36.4647 20.6117C36.6874 20.389 36.8125 20.0869 36.8125 19.772C36.8125 19.457 36.6874 19.155 36.4647 18.9323C36.242 18.7096 35.9399 18.5845 35.625 18.5845H27.3125C26.9976 18.5845 26.6955 18.7096 26.4728 18.9323C26.2501 19.155 26.125 19.457 26.125 19.772C26.125 20.0869 26.2501 20.389 26.4728 20.6117C26.6955 20.8344 26.9976 20.9595 27.3125 20.9595V30.4595H22.5625V20.9595H23.75C24.0649 20.9595 24.367 20.8344 24.5897 20.6117C24.8124 20.389 24.9375 20.0869 24.9375 19.772C24.9375 19.457 24.8124 19.155 24.5897 18.9323C24.367 18.7096 24.0649 18.5845 23.75 18.5845H14.25C13.9351 18.5845 13.633 18.7096 13.4103 18.9323C13.1876 19.155 13.0625 19.457 13.0625 19.772C13.0625 20.0869 13.1876 20.389 13.4103 20.6117C13.633 20.8344 13.9351 20.9595 14.25 20.9595H15.4375V30.4595H10.6875V20.9595C11.0024 20.9595 11.3045 20.8344 11.5272 20.6117C11.7499 20.389 11.875 20.0869 11.875 19.772C11.875 19.457 11.7499 19.155 11.5272 18.9323C11.3045 18.7096 11.0024 18.5845 10.6875 18.5845H2.375C2.06006 18.5845 1.75801 18.7096 1.53531 18.9323C1.31261 19.155 1.1875 19.457 1.1875 19.772C1.1875 20.0869 1.31261 20.389 1.53531 20.6117C1.75801 20.8344 2.06006 20.9595 2.375 20.9595H3.5625V30.4595H2.375C2.06006 30.4595 1.75801 30.5846 1.53531 30.8073C1.31261 31.03 1.1875 31.332 1.1875 31.647C1.1875 31.9619 1.31261 32.264 1.53531 32.4867C1.75801 32.7094 2.06006 32.8345 2.375 32.8345H35.625C35.9399 32.8345 36.242 32.7094 36.4647 32.4867C36.6874 32.264 36.8125 31.9619 36.8125 31.647C36.8125 31.332 36.6874 31.03 36.4647 30.8073C36.242 30.5846 35.9399 30.4595 35.625 30.4595H34.4375V20.9595H35.625ZM36.8125 35.2095H1.1875C0.872555 35.2095 0.57051 35.3346 0.347811 35.5573C0.125111 35.78 0 36.082 0 36.397C0 36.7119 0.125111 37.014 0.347811 37.2367C0.57051 37.4594 0.872555 37.5845 1.1875 37.5845H36.8125C37.1274 37.5845 37.4295 37.4594 37.6522 37.2367C37.8749 37.014 38 36.7119 38 36.397C38 36.082 37.8749 35.78 37.6522 35.5573C37.4295 35.3346 37.1274 35.2095 36.8125 35.2095Z" fill="#EEECDE"/>
</g>
<defs>
<clipPath id="clip0_276_5281">
<rect width="38" height="38" fill="white"/>
</clipPath>
</defs>
</svg>
