<svg width="43" height="40" viewBox="0 0 43 40" fill="none" xmlns="http://www.w3.org/2000/svg">
<path d="M42.3559 17.2111L38.1901 8.50729C38.0366 8.18693 37.8242 7.90128 37.565 7.66665C37.3058 7.43202 37.0049 7.253 36.6795 7.13982C36.354 7.02665 36.0104 6.98152 35.6682 7.00703C35.3261 7.03254 34.9921 7.12818 34.6853 7.28848L30.6256 9.40733L22.0735 7.04472C21.8541 6.98509 21.6237 6.98509 21.4042 7.04472L12.8522 9.40733L8.79244 7.28848C8.48568 7.12818 8.15169 7.03254 7.80954 7.00703C7.46739 6.98152 7.12377 7.02665 6.79832 7.13982C6.47287 7.253 6.17195 7.43202 5.91276 7.66665C5.65357 7.90128 5.44117 8.18693 5.28771 8.50729L1.12186 17.2094C0.968346 17.5297 0.87676 17.8785 0.852333 18.2358C0.827907 18.5931 0.871119 18.9519 0.979502 19.2917C1.08789 19.6316 1.25932 19.9458 1.484 20.2165C1.70869 20.4871 1.98224 20.7089 2.28902 20.8692L6.69646 23.1721L15.7546 29.9275C15.888 30.0267 16.0381 30.099 16.1969 30.1406L26.6442 32.868C26.863 32.9253 27.0923 32.9224 27.3097 32.8597C27.5271 32.797 27.7252 32.6765 27.8848 32.51L34.4144 25.6916L36.876 23.121L41.1888 20.8692C41.8079 20.5455 42.2786 19.9784 42.4975 19.2924C42.7164 18.6065 42.6654 17.8578 42.3559 17.2111ZM33.3957 22.8994L27.7787 18.2015C27.5271 17.991 27.2098 17.8852 26.8879 17.9044C26.5661 17.9236 26.2624 18.0664 26.0353 18.3054C23.128 21.3635 19.8878 20.9766 17.8212 19.6129L24.8796 12.4535H30.0722L34.5139 21.7283L33.3957 22.8994ZM26.5609 30.0349L17.0735 27.5581L9.04219 21.5681L13.6129 12.0222L21.7389 9.77382L23.3386 10.2153L15.9929 17.6611L15.9798 17.6764C15.7033 17.9652 15.4924 18.3151 15.3627 18.7003C15.233 19.0856 15.1878 19.4963 15.2304 19.9022C15.273 20.3082 15.4024 20.6989 15.6089 21.0456C15.8155 21.3924 16.094 21.6863 16.4238 21.9056C19.78 24.1438 23.83 23.7807 27.0196 21.0533L31.5332 24.8392L26.5609 30.0349ZM22.3625 35.967C22.2919 36.2617 22.1291 36.5234 21.8999 36.7106C21.6708 36.8977 21.3883 36.9996 21.0974 37C20.9901 36.9998 20.8832 36.9861 20.779 36.9591L13.9704 35.1812C13.8113 35.1402 13.6611 35.0679 13.528 34.9681L9.22665 31.76C8.96218 31.5432 8.78799 31.2281 8.74037 30.8805C8.69275 30.5329 8.77537 30.1796 8.97101 29.894C9.16665 29.6084 9.46025 29.4126 9.79066 29.3474C10.1211 29.2822 10.4628 29.3526 10.7448 29.544L14.8437 32.6021L21.4124 34.3135C21.7483 34.4013 22.0371 34.6248 22.2153 34.9348C22.3935 35.2449 22.4464 35.6162 22.3625 35.967Z" fill="#EEECDE"/>
</svg>
