<svg width="386" height="544" viewBox="0 0 386 544" fill="none" xmlns="http://www.w3.org/2000/svg">
<g clip-path="url(#clip0_346_4566)">
<g filter="url(#filter0_d_346_4566)">
<path d="M206.067 482.721C205.533 501.977 195.176 523.283 190.064 531.529V521.72L195.704 491.011C196.237 471.755 195.926 392.504 195.704 355.285C196.823 350.123 201.453 340.191 209.701 330.29V218.573C210.225 206.12 217.243 182.881 239.167 168.826C247.348 160.729 258.68 153.954 274.123 150.778C301.064 147.109 320.526 149.342 332.935 144.368C322.731 159.883 300.02 154.13 263.76 159.068C254.002 161.075 245.885 164.519 239.167 168.826C225.307 182.543 220.494 200.053 220.063 210.283V319.797C222.307 317.888 224.707 316.055 227.263 314.339C237.663 304.541 251.896 296.094 270.075 294.175C294.884 294.175 317.833 300.76 331.905 296.016C321.606 313.799 292.26 302.465 259.712 302.465C246.97 303.81 236.167 308.362 227.263 314.339C224.616 316.834 222.216 319.416 220.063 322C211.816 331.901 207.186 341.833 206.067 346.995C206.244 376.678 206.478 433.095 206.294 464.492C209.014 461.219 212.332 458.434 216.339 456.591C221.546 450.141 229.011 445.474 239.404 445.948C260.909 446.407 290.577 448.44 306.863 441.892C298.42 458.066 256.887 454.832 229.042 454.238C224.193 454.017 219.981 454.915 216.339 456.591C209.788 464.705 206.81 475.643 206.067 482.721Z" fill="#16363D"/>
<path d="M173.991 482.721C174.525 501.977 184.882 523.283 189.993 531.529V521.72L184.354 491.011C183.821 471.755 184.132 392.504 184.354 355.285C183.235 350.123 178.605 340.191 170.357 330.29V218.573C169.833 206.12 162.815 182.881 140.891 168.826C132.71 160.729 121.378 153.954 105.935 150.778C78.9941 147.109 59.5322 149.342 47.123 144.368C57.3269 159.883 80.0384 154.13 116.298 159.068C126.056 161.075 134.173 164.519 140.891 168.826C154.751 182.543 159.564 200.053 159.994 210.283V319.797C157.75 317.888 155.351 316.055 152.795 314.339C142.395 304.541 128.162 296.094 109.983 294.175C85.174 294.175 62.2246 300.76 48.1535 296.016C58.4517 313.799 87.7984 302.465 120.346 302.465C133.088 303.81 143.891 308.362 152.795 314.339C155.442 316.834 157.842 319.416 159.994 322C168.242 331.901 172.872 341.833 173.991 346.995C173.814 376.678 173.58 433.095 173.763 464.492C171.044 461.219 167.726 458.434 163.719 456.591C158.512 450.141 151.047 445.474 140.654 445.948C119.149 446.407 89.4808 448.44 73.1955 441.892C81.638 458.066 123.171 454.832 151.016 454.238C155.865 454.017 160.077 454.915 163.719 456.591C170.27 464.705 173.248 475.643 173.991 482.721Z" fill="#16363D"/>
<path d="M34.6406 278.495C36.4074 288.551 41.1949 293.669 48.1542 296.016C46.7203 293.54 45.6558 290.499 45.0032 286.785V266.361L34.6406 258.071V278.495Z" fill="#16363D"/>
<path d="M61.3115 426.559C61.1023 434.111 65.7506 438.899 73.1969 441.892C72.1381 439.864 73.1969 437.5 71.6741 434.849L61.3115 426.559Z" fill="#16363D"/>
<path d="M331.904 296.016C338.863 293.669 343.65 288.551 345.417 278.495V258.071L335.054 266.361V286.785C334.402 290.499 333.337 293.54 331.904 296.016Z" fill="#16363D"/>
<path d="M332.936 144.368C345.403 139.371 350.751 127.1 349.415 94.2632L339.052 102.553C339.928 124.085 337.93 136.774 332.936 144.368Z" fill="#16363D"/>
<path d="M30.6453 94.2632C29.3087 127.1 34.6573 139.371 47.1239 144.368C42.1295 136.774 40.1315 124.085 41.0079 102.553L30.6453 94.2632Z" fill="#16363D"/>
<path d="M306.863 441.892C314.309 438.899 318.957 434.111 318.748 426.559L314.999 424.5C314.999 424.5 308.772 432.197 308.385 434.849C307.999 437.5 307.921 439.864 306.863 441.892Z" fill="#16363D"/>
<path d="M190.064 544V531.529M190.064 531.529C195.176 523.283 205.533 501.977 206.067 482.721M190.064 531.529V521.72M206.067 482.721C206.175 478.822 206.248 472.464 206.294 464.492M206.067 482.721C206.81 475.643 209.788 464.705 216.339 456.591M190.064 521.72L195.704 491.011M190.064 521.72V144.408M206.294 464.492C206.478 433.095 206.244 376.678 206.067 346.995C207.186 341.833 211.816 331.901 220.063 322M206.294 464.492C199.521 472.643 196.459 483.82 195.704 491.011M206.294 464.492C209.014 461.219 212.332 458.434 216.339 456.591M216.339 456.591C221.546 450.141 229.011 445.474 239.404 445.948C260.909 446.407 290.577 448.44 306.863 441.892M216.339 456.591C219.981 454.915 224.193 454.017 229.042 454.238C256.887 454.832 298.42 458.066 306.863 441.892M220.063 322C222.216 319.416 224.616 316.834 227.263 314.339M220.063 322V319.797M195.704 491.011C196.237 471.755 195.926 392.504 195.704 355.285C196.823 350.123 201.453 340.191 209.701 330.29M227.263 314.339C237.663 304.541 251.896 296.094 270.075 294.175C294.884 294.175 317.833 300.76 331.905 296.016M227.263 314.339C224.707 316.055 222.307 317.888 220.063 319.797M227.263 314.339C236.167 308.362 246.97 303.81 259.712 302.465C292.26 302.465 321.606 313.799 331.905 296.016M220.063 319.797V210.283C220.494 200.053 225.307 182.543 239.167 168.826M220.063 319.797C216.134 323.139 212.681 326.713 209.701 330.29M331.905 296.016C338.864 293.669 343.651 288.551 345.418 278.495V258.071L335.055 266.361V286.785C334.403 290.499 333.338 293.54 331.905 296.016ZM306.863 441.892C314.309 438.899 318.957 434.111 318.748 426.559L314.999 424.5C314.999 424.5 308.772 432.197 308.385 434.849C307.999 437.5 307.921 439.864 306.863 441.892ZM239.167 168.826C247.348 160.729 258.68 153.954 274.123 150.778C301.064 147.109 320.526 149.342 332.935 144.368M239.167 168.826C217.243 182.881 210.225 206.12 209.701 218.573V330.29M239.167 168.826C245.885 164.519 254.002 161.075 263.76 159.068C300.02 154.13 322.731 159.883 332.935 144.368M332.935 144.368C345.402 139.371 350.75 127.1 349.414 94.2632L339.051 102.553C339.927 124.085 337.929 136.774 332.935 144.368ZM189.994 544V531.529M189.994 531.529C184.883 523.283 174.526 501.977 173.992 482.721M189.994 531.529V521.72M173.992 482.721C173.884 478.822 173.811 472.464 173.764 464.492M173.992 482.721C173.249 475.643 170.271 464.705 163.72 456.591M189.994 521.72L184.355 491.011M189.994 521.72V144.408M173.764 464.492C173.581 433.095 173.815 376.678 173.992 346.995C172.873 341.833 168.243 331.901 159.995 322M173.764 464.492C180.538 472.643 183.6 483.82 184.355 491.011M173.764 464.492C171.045 461.219 167.727 458.434 163.72 456.591M163.72 456.591C158.513 450.141 151.048 445.474 140.655 445.948C119.15 446.407 89.4817 448.44 73.1964 441.892M163.72 456.591C160.078 454.915 155.866 454.017 151.017 454.238C123.172 454.832 81.6389 458.066 73.1964 441.892M159.995 322C157.843 319.416 155.443 316.834 152.796 314.339M159.995 322V319.797M184.355 491.011C183.822 471.755 184.133 392.504 184.355 355.285C183.236 350.123 178.606 340.191 170.358 330.29M152.796 314.339C142.396 304.541 128.163 296.094 109.984 294.175C85.1749 294.175 62.2255 300.76 48.1544 296.016M152.796 314.339C155.352 316.055 157.751 317.888 159.995 319.797M152.796 314.339C143.892 308.362 133.089 303.81 120.347 302.465C87.7993 302.465 58.4526 313.799 48.1544 296.016M159.995 319.797V210.283C159.565 200.053 154.752 182.543 140.892 168.826M159.995 319.797C163.925 323.139 167.378 326.713 170.358 330.29M48.1544 296.016C41.1951 293.669 36.4076 288.551 34.6408 278.495V258.071L45.0034 266.361V286.785C45.656 290.499 46.7205 293.54 48.1544 296.016ZM73.1964 441.892C65.7501 438.899 61.1018 434.111 61.311 426.559L71.6736 434.849C73.1964 437.5 72.1376 439.864 73.1964 441.892ZM140.892 168.826C132.711 160.729 121.379 153.954 105.936 150.778C78.995 147.109 59.5331 149.342 47.1239 144.368M140.892 168.826C162.816 182.881 169.834 206.12 170.358 218.573V330.29M140.892 168.826C134.174 164.519 126.057 161.075 116.299 159.068C80.0393 154.13 57.3278 159.883 47.1239 144.368M47.1239 144.368C34.6573 139.371 29.3087 127.1 30.6453 94.2632L41.0079 102.553C40.1315 124.085 42.1295 136.774 47.1239 144.368Z" stroke="#D2E7D3" stroke-width="2"/>
</g>
<g filter="url(#filter1_di_346_4566)">
<path d="M335.716 344.002H299.264C296.167 344.002 293.656 346.507 293.656 349.598V422.343C293.656 425.434 296.167 427.939 299.264 427.939H335.716C338.813 427.939 341.324 425.434 341.324 422.343V349.598C341.324 346.507 338.813 344.002 335.716 344.002Z" fill="#16363D"/>
<path d="M335.716 344.002H299.264C296.167 344.002 293.656 346.507 293.656 349.598V422.343C293.656 425.434 296.167 427.939 299.264 427.939H335.716C338.813 427.939 341.324 425.434 341.324 422.343V349.598C341.324 346.507 338.813 344.002 335.716 344.002Z" stroke="#D2E7D3" stroke-width="2" stroke-linejoin="round"/>
</g>
<g filter="url(#filter2_d_346_4566)">
<path d="M293.656 355.401H341.324M293.656 408.25H341.324" stroke="#D2E7D3" stroke-width="2" stroke-linejoin="round"/>
</g>
<g filter="url(#filter3_d_346_4566)">
<path d="M318.009 420.685C319.439 420.685 320.599 419.525 320.599 418.095C320.599 416.664 319.439 415.504 318.009 415.504C316.578 415.504 315.418 416.664 315.418 418.095C315.418 419.525 316.578 420.685 318.009 420.685Z" fill="#16363D"/>
<path d="M318.009 420.685C319.439 420.685 320.599 419.525 320.599 418.095C320.599 416.664 319.439 415.504 318.009 415.504C316.578 415.504 315.418 416.664 315.418 418.095C315.418 419.525 316.578 420.685 318.009 420.685Z" stroke="#D2E7D3" stroke-width="2" stroke-linejoin="round"/>
</g>
<g filter="url(#filter4_di_346_4566)">
<path d="M103.728 386.143H95.816C95.348 386.143 94.9446 385.818 94.8298 385.365C94.102 382.492 92.9474 379.742 91.4036 377.203C91.1574 376.798 91.2133 376.275 91.5504 375.943L97.134 370.431C97.384 370.185 97.524 369.851 97.524 369.503C97.524 369.155 97.384 368.821 97.134 368.575L89.6112 361.149C89.3618 360.902 89.0236 360.764 88.671 360.764C88.3184 360.764 87.9802 360.902 87.7308 361.149L82.1323 366.674C81.8018 367.001 81.2912 367.055 80.8919 366.818C78.3118 365.287 75.5155 364.143 72.5948 363.423C72.1386 363.311 71.811 362.906 71.811 362.436V354.641C71.811 354.293 71.6708 353.959 71.4214 353.713C71.172 353.466 70.8338 353.328 70.4811 353.328H59.8422C59.4894 353.328 59.1512 353.466 58.9018 353.713C58.6524 353.959 58.5123 354.293 58.5123 354.641V362.436C58.5123 362.906 58.1847 363.311 57.7286 363.423C54.8082 364.144 52.0124 365.288 49.4327 366.819C49.0334 367.056 48.5227 367.002 48.1922 366.676L42.5925 361.149C42.3431 360.902 42.0049 360.764 41.6522 360.764C41.2996 360.764 40.9614 360.902 40.712 361.149L33.189 368.574C32.9397 368.82 32.7996 369.154 32.7996 369.502C32.7996 369.85 32.9397 370.184 33.189 370.43L38.7729 375.941C39.11 376.274 39.1659 376.797 38.9198 377.201C37.3762 379.741 36.222 382.492 35.4947 385.365C35.3799 385.818 34.9763 386.143 34.5085 386.143H26.5955C26.2428 386.143 25.9045 386.281 25.6551 386.527C25.4057 386.774 25.2656 387.107 25.2656 387.456V397.956C25.2656 398.304 25.4057 398.638 25.6551 398.885C25.9045 399.131 26.2428 399.269 26.5955 399.269H34.5086C34.9764 399.269 35.3799 399.594 35.4948 400.047C36.2225 402.92 37.3771 405.67 38.921 408.209C39.1671 408.614 39.1113 409.137 38.7741 409.469L33.189 414.982C32.9397 415.228 32.7996 415.562 32.7996 415.91C32.7996 416.258 32.9397 416.592 33.189 416.838L40.712 424.263C40.9614 424.509 41.2996 424.648 41.6522 424.648C42.0049 424.648 42.3431 424.509 42.5925 424.263L48.1909 418.738C48.5214 418.411 49.0321 418.357 49.4314 418.594C52.0115 420.125 54.8077 421.27 57.7285 421.99C58.1847 422.103 58.5123 422.507 58.5123 422.977V430.771C58.5123 431.119 58.6524 431.453 58.9018 431.699C59.1512 431.946 59.4894 432.084 59.8422 432.084H70.4811C70.8338 432.084 71.172 431.946 71.4214 431.699C71.6708 431.453 71.811 431.119 71.811 430.771V422.977C71.811 422.507 72.1385 422.103 72.5947 421.99C75.515 421.27 78.3108 420.125 80.8905 418.594C81.2898 418.357 81.8005 418.411 82.131 418.738L87.7295 424.263C87.9788 424.509 88.317 424.648 88.6697 424.648C89.0223 424.648 89.3605 424.509 89.6099 424.263L97.133 416.838C97.382 416.592 97.522 416.258 97.522 415.91C97.522 415.562 97.382 415.228 97.133 414.982L91.5491 409.471C91.212 409.138 91.1562 408.615 91.4024 408.21C92.9468 405.671 94.1018 402.92 94.8298 400.047C94.9446 399.594 95.348 399.269 95.816 399.269H103.728C104.08 399.269 104.419 399.131 104.668 398.885C104.918 398.638 105.058 398.304 105.058 397.956V387.456C105.058 387.107 104.918 386.774 104.668 386.527C104.419 386.281 104.08 386.143 103.728 386.143Z" fill="#16363D"/>
<path d="M103.728 386.143H95.816C95.348 386.143 94.9446 385.818 94.8298 385.365C94.102 382.492 92.9474 379.742 91.4036 377.203C91.1574 376.798 91.2133 376.275 91.5504 375.943L97.134 370.431C97.384 370.185 97.524 369.851 97.524 369.503C97.524 369.155 97.384 368.821 97.134 368.575L89.6112 361.149C89.3618 360.902 89.0236 360.764 88.671 360.764C88.3184 360.764 87.9802 360.902 87.7308 361.149L82.1323 366.674C81.8018 367.001 81.2912 367.055 80.8919 366.818C78.3118 365.287 75.5155 364.143 72.5948 363.423C72.1386 363.311 71.811 362.906 71.811 362.436V354.641C71.811 354.293 71.6708 353.959 71.4214 353.713C71.172 353.466 70.8338 353.328 70.4811 353.328H59.8422C59.4894 353.328 59.1512 353.466 58.9018 353.713C58.6524 353.959 58.5123 354.293 58.5123 354.641V362.436C58.5123 362.906 58.1847 363.311 57.7286 363.423C54.8082 364.144 52.0124 365.288 49.4327 366.819C49.0334 367.056 48.5227 367.002 48.1922 366.676L42.5925 361.149C42.3431 360.902 42.0049 360.764 41.6522 360.764C41.2996 360.764 40.9614 360.902 40.712 361.149L33.189 368.574C32.9397 368.82 32.7996 369.154 32.7996 369.502C32.7996 369.85 32.9397 370.184 33.189 370.43L38.7729 375.941C39.11 376.274 39.1659 376.797 38.9198 377.201C37.3762 379.741 36.222 382.492 35.4947 385.365C35.3799 385.818 34.9763 386.143 34.5085 386.143H26.5955C26.2428 386.143 25.9045 386.281 25.6551 386.527C25.4057 386.774 25.2656 387.107 25.2656 387.456V397.956C25.2656 398.304 25.4057 398.638 25.6551 398.885C25.9045 399.131 26.2428 399.269 26.5955 399.269H34.5086C34.9764 399.269 35.3799 399.594 35.4948 400.047C36.2225 402.92 37.3771 405.67 38.921 408.209C39.1671 408.614 39.1113 409.137 38.7741 409.469L33.189 414.982C32.9397 415.228 32.7996 415.562 32.7996 415.91C32.7996 416.258 32.9397 416.592 33.189 416.838L40.712 424.263C40.9614 424.509 41.2996 424.648 41.6522 424.648C42.0049 424.648 42.3431 424.509 42.5925 424.263L48.1909 418.738C48.5214 418.411 49.0321 418.357 49.4314 418.594C52.0115 420.125 54.8077 421.27 57.7285 421.99C58.1847 422.103 58.5123 422.507 58.5123 422.977V430.771C58.5123 431.119 58.6524 431.453 58.9018 431.699C59.1512 431.946 59.4894 432.084 59.8422 432.084H70.4811C70.8338 432.084 71.172 431.946 71.4214 431.699C71.6708 431.453 71.811 431.119 71.811 430.771V422.977C71.811 422.507 72.1385 422.103 72.5947 421.99C75.515 421.27 78.3108 420.125 80.8905 418.594C81.2898 418.357 81.8005 418.411 82.131 418.738L87.7295 424.263C87.9788 424.509 88.317 424.648 88.6697 424.648C89.0223 424.648 89.3605 424.509 89.6099 424.263L97.133 416.838C97.382 416.592 97.522 416.258 97.522 415.91C97.522 415.562 97.382 415.228 97.133 414.982L91.5491 409.471C91.212 409.138 91.1562 408.615 91.4024 408.21C92.9468 405.671 94.1018 402.92 94.8298 400.047C94.9446 399.594 95.348 399.269 95.816 399.269H103.728C104.08 399.269 104.419 399.131 104.668 398.885C104.918 398.638 105.058 398.304 105.058 397.956V387.456C105.058 387.107 104.918 386.774 104.668 386.527C104.419 386.281 104.08 386.143 103.728 386.143Z" stroke="#D2E7D3" stroke-width="2" stroke-linejoin="round"/>
</g>
<path d="M64.6432 406.178C72.0833 406.178 78.1146 400.146 78.1146 392.706C78.1146 385.266 72.0833 379.235 64.6432 379.235C57.2032 379.235 51.1719 385.266 51.1719 392.706C51.1719 400.146 57.2032 406.178 64.6432 406.178Z" stroke="#D2E7D3" stroke-width="2" stroke-miterlimit="10" stroke-linecap="round" stroke-linejoin="round"/>
<g filter="url(#filter5_di_346_4566)">
<path d="M378.282 52.0892L345.639 35.1968L314.975 52.0892L345.639 69.9753L378.282 52.0892Z" fill="#16363D"/>
<path d="M345.639 69.9755V107.735L379.271 89.849L378.282 52.0894L345.639 69.9755Z" fill="#16363D"/>
<path d="M345.639 107.735V69.9755L314.975 52.0894L313.986 90.8427L329.813 99.2889L345.639 107.735Z" fill="#16363D"/>
<path d="M345.639 69.9753V107.735M345.639 69.9753L378.282 52.0892M345.639 69.9753L314.975 52.0892M345.639 69.9753V35.1968M345.639 107.735L379.271 89.8488M345.639 107.735L329.813 99.2887L313.986 90.8425M378.282 52.0892L379.271 89.8488M378.282 52.0892L359.206 75.0846C358.827 75.5408 358.927 76.2241 359.419 76.5539L379.271 89.8488M378.282 52.0892L345.639 35.1968M314.975 52.0892L345.639 35.1968M314.975 52.0892L313.986 90.8425M314.975 52.0892L334.074 75.1118C334.444 75.5581 334.358 76.2247 333.887 76.5627L313.986 90.8425" stroke="#D2E7D3" stroke-width="2" stroke-linejoin="round"/>
</g>
<g filter="url(#filter6_di_346_4566)">
<path d="M37.3057 271.464C48.3628 271.464 57.3263 254.53 57.3263 233.64C57.3263 212.751 48.3628 195.817 37.3057 195.817C26.2487 195.817 17.2852 212.751 17.2852 233.64C17.2852 254.53 26.2487 271.464 37.3057 271.464Z" fill="#16363D"/>
<path d="M37.3053 271.464C57.9085 271.464 74.6107 254.53 74.6107 233.64C74.6107 212.751 57.9085 195.817 37.3053 195.817C16.7022 195.817 0 212.751 0 233.64C0 254.53 16.7022 271.464 37.3053 271.464Z" fill="#16363D"/>
<path d="M37.3053 271.464C48.3624 271.464 57.3259 254.53 57.3259 233.64C57.3259 212.751 48.3624 195.817 37.3053 195.817M37.3053 271.464C26.2483 271.464 17.2848 254.53 17.2848 233.64C17.2848 212.751 26.2483 195.817 37.3053 195.817M37.3053 271.464V195.817M37.3053 271.464C57.9085 271.464 74.6107 254.53 74.6107 233.64C74.6107 212.751 57.9085 195.817 37.3053 195.817M37.3053 271.464C16.7022 271.464 0 254.53 0 233.64C0 212.751 16.7022 195.817 37.3053 195.817M3.10878 248.77H71.5019M3.10878 218.511H71.5019" stroke="#D2E7D3" stroke-width="2" stroke-linejoin="round"/>
</g>
<g filter="url(#filter7_d_346_4566)">
<path d="M368.371 205.143H314.279C312.619 205.143 311.273 206.489 311.273 208.148V262.241C311.273 263.901 312.619 265.246 314.279 265.246H368.371C370.031 265.246 371.376 263.901 371.376 262.241V208.148C371.376 206.489 370.031 205.143 368.371 205.143Z" fill="#16363D"/>
<path d="M368.371 205.143H314.279C312.619 205.143 311.273 206.489 311.273 208.148V262.241C311.273 263.901 312.619 265.246 314.279 265.246H368.371C370.031 265.246 371.376 263.901 371.376 262.241V208.148C371.376 206.489 370.031 205.143 368.371 205.143Z" stroke="#D2E7D3" stroke-width="2" stroke-linejoin="round"/>
</g>
<g filter="url(#filter8_di_346_4566)">
<path d="M340.806 205.489V190.636M325.78 205.489V190.636M355.832 205.489V190.636M325.78 279.754V264.901M355.832 279.754V264.901M370.857 235.195H385.883M370.857 220.342H385.883M370.857 250.048H385.883M295.729 220.342H310.754M295.729 250.048H310.754M295.729 235.195H310.754" stroke="#D2E7D3" stroke-width="2" stroke-linejoin="round"/>
</g>
<g filter="url(#filter9_d_346_4566)">
<path d="M355.919 217.578H325.694C324.025 217.578 322.672 218.893 322.672 220.514V249.875C322.672 251.496 324.025 252.811 325.694 252.811H355.919C357.588 252.811 358.941 251.496 358.941 249.875V220.514C358.941 218.893 357.588 217.578 355.919 217.578Z" stroke="#D2E7D3" stroke-width="2" stroke-linejoin="round"/>
</g>
<g filter="url(#filter10_di_346_4566)">
<path d="M33.161 27.9429C41.7457 27.9429 48.7049 35.1769 48.7049 44.1005V56.2253C48.7049 56.7776 48.2572 57.2253 47.7049 57.2253H18.6172C18.0649 57.2253 17.6172 56.7776 17.6172 56.2253V44.1005C17.6172 35.1769 24.5764 27.9429 33.161 27.9429Z" fill="#16363D"/>
<path fill-rule="evenodd" clip-rule="evenodd" d="M15.5448 57.2715C11.5387 57.2715 8.29102 60.6474 8.29102 64.8117V96.0498C8.29102 100.214 11.5387 103.59 15.5448 103.59H51.8139C55.8201 103.59 59.0677 100.214 59.0677 96.0498V64.8117C59.0677 60.6474 55.8201 57.2715 51.8139 57.2715H15.5448ZM33.1612 69.1204C29.7274 69.1204 26.9437 72.0141 26.9437 75.5835C26.9437 77.7677 27.986 79.6988 29.5818 80.8687C29.8648 81.0762 30.0525 81.3965 30.0525 81.7475V89.5868C30.0525 91.3715 31.4443 92.8183 33.1612 92.8183C34.8782 92.8183 36.27 91.3715 36.27 89.5868V81.7475C36.27 81.3965 36.4577 81.0762 36.7407 80.8687C38.3365 79.6988 39.3788 77.7677 39.3788 75.5835C39.3788 72.0141 36.5951 69.1204 33.1612 69.1204Z" fill="#16363D"/>
<path d="M26.9434 75.5832C26.9434 72.0138 29.7271 69.1201 33.1609 69.1201C36.5948 69.1201 39.3785 72.0138 39.3785 75.5832C39.3785 77.7674 38.3362 79.6985 36.7404 80.8684C36.4574 81.0759 36.2697 81.3962 36.2697 81.7472V89.5865C36.2697 91.3712 34.8779 92.818 33.1609 92.818C31.444 92.818 30.0522 91.3712 30.0522 89.5865V81.7472C30.0522 81.3962 29.8645 81.0759 29.5815 80.8684C27.9857 79.6985 26.9434 77.7674 26.9434 75.5832Z" fill="#16363D"/>
<path d="M33.161 27.9429C41.7457 27.9429 48.7049 35.1769 48.7049 44.1005V56.2253C48.7049 56.7776 48.2572 57.2253 47.7049 57.2253H18.6172C18.0649 57.2253 17.6172 56.7776 17.6172 56.2253V44.1005C17.6172 35.1769 24.5764 27.9429 33.161 27.9429Z" stroke="#D2E7D3" stroke-width="2" stroke-linejoin="round"/>
<path fill-rule="evenodd" clip-rule="evenodd" d="M15.5448 57.2715C11.5387 57.2715 8.29102 60.6474 8.29102 64.8117V96.0498C8.29102 100.214 11.5387 103.59 15.5448 103.59H51.8139C55.8201 103.59 59.0677 100.214 59.0677 96.0498V64.8117C59.0677 60.6474 55.8201 57.2715 51.8139 57.2715H15.5448ZM33.1612 69.1204C29.7274 69.1204 26.9437 72.0141 26.9437 75.5835C26.9437 77.7677 27.986 79.6988 29.5818 80.8687C29.8648 81.0762 30.0525 81.3965 30.0525 81.7475V89.5868C30.0525 91.3715 31.4443 92.8183 33.1612 92.8183C34.8782 92.8183 36.27 91.3715 36.27 89.5868V81.7475C36.27 81.3965 36.4577 81.0762 36.7407 80.8687C38.3365 79.6988 39.3788 77.7677 39.3788 75.5835C39.3788 72.0141 36.5951 69.1204 33.1612 69.1204Z" stroke="#D2E7D3" stroke-width="2" stroke-linejoin="round"/>
<path d="M26.9434 75.5832C26.9434 72.0138 29.7271 69.1201 33.1609 69.1201C36.5948 69.1201 39.3785 72.0138 39.3785 75.5832C39.3785 77.7674 38.3362 79.6985 36.7404 80.8684C36.4574 81.0759 36.2697 81.3962 36.2697 81.7472V89.5865C36.2697 91.3712 34.8779 92.818 33.1609 92.818C31.444 92.818 30.0522 91.3712 30.0522 89.5865V81.7472C30.0522 81.3962 29.8645 81.0759 29.5815 80.8684C27.9857 79.6985 26.9434 77.7674 26.9434 75.5832Z" stroke="#D2E7D3" stroke-width="2" stroke-linejoin="round"/>
</g>
<g filter="url(#filter11_di_346_4566)">
<path d="M190.591 28.0264C166.422 28.0264 146.828 47.6198 146.828 71.7895C146.828 88.965 156.085 104.84 170.469 112.029C170.793 112.19 171.01 112.51 171.032 112.872L171.649 122.738H180.14V82.2404C180.14 82.2404 172.955 82.8936 170.459 82.1681C167.962 81.4426 166.424 78.3689 166.424 75.7086C166.424 71.7405 169.64 68.5236 173.609 68.5236C177.577 68.5236 180.14 71.7405 180.14 75.7086V82.2404H199.083V75.7086C199.083 71.7405 201.646 68.5236 205.614 68.5236C209.583 68.5236 212.799 71.7405 212.799 75.7086C212.799 78.3689 211.261 81.4426 208.764 82.1681C206.268 82.8936 199.083 82.2404 199.083 82.2404V122.738H208.227L209.466 112.828C209.508 112.491 209.719 112.199 210.023 112.047C224.443 104.867 234.354 88.9798 234.354 71.7895C234.354 47.6198 214.761 28.0264 190.591 28.0264Z" fill="#16363D"/>
<path d="M180.141 82.2402V122.738H199.084V82.2402H180.141Z" fill="#16363D"/>
<path d="M212.8 75.7084C212.8 71.7403 209.584 68.5234 205.615 68.5234C201.647 68.5234 199.084 71.7403 199.084 75.7084V82.2402C199.084 82.2402 206.269 82.8934 208.765 82.1679C211.262 81.4424 212.8 78.3687 212.8 75.7084Z" fill="#16363D"/>
<path d="M173.609 68.5234C169.64 68.5234 166.424 71.7403 166.424 75.7084C166.424 78.3687 167.962 81.4424 170.459 82.1679C172.955 82.8934 180.14 82.2402 180.14 82.2402V75.7084C180.14 71.7403 177.577 68.5234 173.609 68.5234Z" fill="#16363D"/>
<path d="M172.652 135.148C175.073 141.998 181.605 146.905 189.284 146.905C196.963 146.905 204.802 141.998 207.223 135.148H172.652Z" fill="#16363D"/>
<path d="M172.654 135.148H207.225C208.628 131.179 208.228 126.875 208.228 122.738H199.084H180.141H171.65C171.65 126.875 171.251 131.179 172.654 135.148Z" fill="#16363D"/>
<path d="M208.227 122.738H199.083M208.227 122.738L209.466 112.828C209.508 112.491 209.719 112.199 210.023 112.047C224.443 104.867 234.354 88.9798 234.354 71.7895C234.354 47.6198 214.761 28.0264 190.591 28.0264C166.422 28.0264 146.828 47.6198 146.828 71.7895C146.828 88.965 156.085 104.84 170.469 112.029C170.793 112.19 171.01 112.51 171.032 112.872L171.649 122.738M208.227 122.738C208.227 126.875 208.627 131.179 207.224 135.148M199.083 122.738H180.14M199.083 122.738V82.2404M171.649 122.738H180.14M171.649 122.738C171.649 126.875 171.25 131.179 172.653 135.148M207.224 135.148C204.803 141.998 196.964 146.905 189.285 146.905C181.606 146.905 175.074 141.998 172.653 135.148M207.224 135.148H172.653M180.14 122.738V82.2404M180.14 82.2404C180.14 82.2404 172.955 82.8936 170.459 82.1681C167.962 81.4426 166.424 78.3689 166.424 75.7086C166.424 71.7405 169.64 68.5236 173.609 68.5236C177.577 68.5236 180.14 71.7405 180.14 75.7086V82.2404ZM180.14 82.2404H199.083M199.083 82.2404C199.083 82.2404 206.268 82.8936 208.765 82.1681C211.261 81.4426 212.799 78.3689 212.799 75.7086C212.799 71.7405 209.583 68.5236 205.614 68.5236C201.646 68.5236 199.083 71.7405 199.083 75.7086V82.2404Z" stroke="#D2E7D3" stroke-width="2" stroke-linejoin="round"/>
</g>
<g filter="url(#filter12_d_346_4566)">
<path d="M180.127 122.725V82.228M180.127 82.228C180.127 82.228 172.942 82.8812 170.445 82.1557C167.948 81.4302 166.41 78.3565 166.41 75.6962C166.41 71.7281 169.627 68.5112 173.595 68.5112C177.563 68.5112 180.127 71.7281 180.127 75.6962V82.228ZM180.127 82.228H199.069M199.069 82.228C199.069 82.228 206.254 82.8812 208.751 82.1557C211.248 81.4302 212.786 78.3565 212.786 75.6962C212.786 71.7281 209.569 68.5112 205.601 68.5112C201.633 68.5112 199.069 71.7281 199.069 75.6962V82.228ZM199.069 82.228C199.069 98.0432 199.069 106.91 199.069 122.725" stroke="#D2E7D3" stroke-width="2" stroke-linejoin="round"/>
</g>
<path d="M188.413 1V18.2044M220.298 24.3158L234.912 9.75827M237.569 50.7404H252.847M157.906 24.3158L143.292 9.75827M141.25 50.7404H123.314" stroke="#D2E7D3" stroke-width="2"/>
</g>
<defs>
<filter id="filter0_d_346_4566" x="19.4453" y="82.2476" width="349.168" height="479.752" filterUnits="userSpaceOnUse" color-interpolation-filters="sRGB">
<feFlood flood-opacity="0" result="BackgroundImageFix"/>
<feColorMatrix in="SourceAlpha" type="matrix" values="0 0 0 0 0 0 0 0 0 0 0 0 0 0 0 0 0 0 127 0" result="hardAlpha"/>
<feOffset dx="4" dy="4"/>
<feGaussianBlur stdDeviation="7"/>
<feComposite in2="hardAlpha" operator="out"/>
<feColorMatrix type="matrix" values="0 0 0 0 0.0390625 0 0 0 0 0.00900415 0 0 0 0 0.00900415 0 0 0 0.06 0"/>
<feBlend mode="normal" in2="BackgroundImageFix" result="effect1_dropShadow_346_4566"/>
<feBlend mode="normal" in="SourceGraphic" in2="effect1_dropShadow_346_4566" result="shape"/>
</filter>
<filter id="filter1_di_346_4566" x="288.656" y="331.002" width="67.668" height="103.937" filterUnits="userSpaceOnUse" color-interpolation-filters="sRGB">
<feFlood flood-opacity="0" result="BackgroundImageFix"/>
<feColorMatrix in="SourceAlpha" type="matrix" values="0 0 0 0 0 0 0 0 0 0 0 0 0 0 0 0 0 0 127 0" result="hardAlpha"/>
<feOffset dx="5" dy="-3"/>
<feGaussianBlur stdDeviation="4.5"/>
<feComposite in2="hardAlpha" operator="out"/>
<feColorMatrix type="matrix" values="0 0 0 0 0 0 0 0 0 0 0 0 0 0 0 0 0 0 0.05 0"/>
<feBlend mode="normal" in2="BackgroundImageFix" result="effect1_dropShadow_346_4566"/>
<feBlend mode="normal" in="SourceGraphic" in2="effect1_dropShadow_346_4566" result="shape"/>
<feColorMatrix in="SourceAlpha" type="matrix" values="0 0 0 0 0 0 0 0 0 0 0 0 0 0 0 0 0 0 127 0" result="hardAlpha"/>
<feOffset dx="4" dy="4"/>
<feGaussianBlur stdDeviation="3"/>
<feComposite in2="hardAlpha" operator="arithmetic" k2="-1" k3="1"/>
<feColorMatrix type="matrix" values="0 0 0 0 0 0 0 0 0 0 0 0 0 0 0 0 0 0 0.08 0"/>
<feBlend mode="normal" in2="shape" result="effect2_innerShadow_346_4566"/>
</filter>
<filter id="filter2_d_346_4566" x="293.656" y="354.401" width="54.668" height="61.8491" filterUnits="userSpaceOnUse" color-interpolation-filters="sRGB">
<feFlood flood-opacity="0" result="BackgroundImageFix"/>
<feColorMatrix in="SourceAlpha" type="matrix" values="0 0 0 0 0 0 0 0 0 0 0 0 0 0 0 0 0 0 127 0" result="hardAlpha"/>
<feOffset dx="4" dy="4"/>
<feGaussianBlur stdDeviation="1.5"/>
<feComposite in2="hardAlpha" operator="out"/>
<feColorMatrix type="matrix" values="0 0 0 0 0 0 0 0 0 0 0 0 0 0 0 0 0 0 0.05 0"/>
<feBlend mode="normal" in2="BackgroundImageFix" result="effect1_dropShadow_346_4566"/>
<feBlend mode="normal" in="SourceGraphic" in2="effect1_dropShadow_346_4566" result="shape"/>
</filter>
<filter id="filter3_d_346_4566" x="314.418" y="414.504" width="14.1816" height="14.1812" filterUnits="userSpaceOnUse" color-interpolation-filters="sRGB">
<feFlood flood-opacity="0" result="BackgroundImageFix"/>
<feColorMatrix in="SourceAlpha" type="matrix" values="0 0 0 0 0 0 0 0 0 0 0 0 0 0 0 0 0 0 127 0" result="hardAlpha"/>
<feOffset dx="4" dy="4"/>
<feGaussianBlur stdDeviation="1.5"/>
<feComposite in2="hardAlpha" operator="out"/>
<feColorMatrix type="matrix" values="0 0 0 0 0 0 0 0 0 0 0 0 0 0 0 0 0 0 0.05 0"/>
<feBlend mode="normal" in2="BackgroundImageFix" result="effect1_dropShadow_346_4566"/>
<feBlend mode="normal" in="SourceGraphic" in2="effect1_dropShadow_346_4566" result="shape"/>
</filter>
<filter id="filter4_di_346_4566" x="20.2656" y="340.328" width="99.793" height="98.7559" filterUnits="userSpaceOnUse" color-interpolation-filters="sRGB">
<feFlood flood-opacity="0" result="BackgroundImageFix"/>
<feColorMatrix in="SourceAlpha" type="matrix" values="0 0 0 0 0 0 0 0 0 0 0 0 0 0 0 0 0 0 127 0" result="hardAlpha"/>
<feOffset dx="5" dy="-3"/>
<feGaussianBlur stdDeviation="4.5"/>
<feComposite in2="hardAlpha" operator="out"/>
<feColorMatrix type="matrix" values="0 0 0 0 0 0 0 0 0 0 0 0 0 0 0 0 0 0 0.05 0"/>
<feBlend mode="normal" in2="BackgroundImageFix" result="effect1_dropShadow_346_4566"/>
<feBlend mode="normal" in="SourceGraphic" in2="effect1_dropShadow_346_4566" result="shape"/>
<feColorMatrix in="SourceAlpha" type="matrix" values="0 0 0 0 0 0 0 0 0 0 0 0 0 0 0 0 0 0 127 0" result="hardAlpha"/>
<feOffset dx="4" dy="4"/>
<feGaussianBlur stdDeviation="3"/>
<feComposite in2="hardAlpha" operator="arithmetic" k2="-1" k3="1"/>
<feColorMatrix type="matrix" values="0 0 0 0 0 0 0 0 0 0 0 0 0 0 0 0 0 0 0.08 0"/>
<feBlend mode="normal" in2="shape" result="effect2_innerShadow_346_4566"/>
</filter>
<filter id="filter5_di_346_4566" x="308.986" y="22.1968" width="85.2852" height="92.5381" filterUnits="userSpaceOnUse" color-interpolation-filters="sRGB">
<feFlood flood-opacity="0" result="BackgroundImageFix"/>
<feColorMatrix in="SourceAlpha" type="matrix" values="0 0 0 0 0 0 0 0 0 0 0 0 0 0 0 0 0 0 127 0" result="hardAlpha"/>
<feOffset dx="5" dy="-3"/>
<feGaussianBlur stdDeviation="4.5"/>
<feComposite in2="hardAlpha" operator="out"/>
<feColorMatrix type="matrix" values="0 0 0 0 0 0 0 0 0 0 0 0 0 0 0 0 0 0 0.05 0"/>
<feBlend mode="normal" in2="BackgroundImageFix" result="effect1_dropShadow_346_4566"/>
<feBlend mode="normal" in="SourceGraphic" in2="effect1_dropShadow_346_4566" result="shape"/>
<feColorMatrix in="SourceAlpha" type="matrix" values="0 0 0 0 0 0 0 0 0 0 0 0 0 0 0 0 0 0 127 0" result="hardAlpha"/>
<feOffset dx="4" dy="4"/>
<feGaussianBlur stdDeviation="3"/>
<feComposite in2="hardAlpha" operator="arithmetic" k2="-1" k3="1"/>
<feColorMatrix type="matrix" values="0 0 0 0 0 0 0 0 0 0 0 0 0 0 0 0 0 0 0.08 0"/>
<feBlend mode="normal" in2="shape" result="effect2_innerShadow_346_4566"/>
</filter>
<filter id="filter6_di_346_4566" x="-5" y="182.817" width="94.6113" height="95.647" filterUnits="userSpaceOnUse" color-interpolation-filters="sRGB">
<feFlood flood-opacity="0" result="BackgroundImageFix"/>
<feColorMatrix in="SourceAlpha" type="matrix" values="0 0 0 0 0 0 0 0 0 0 0 0 0 0 0 0 0 0 127 0" result="hardAlpha"/>
<feOffset dx="5" dy="-3"/>
<feGaussianBlur stdDeviation="4.5"/>
<feComposite in2="hardAlpha" operator="out"/>
<feColorMatrix type="matrix" values="0 0 0 0 0 0 0 0 0 0 0 0 0 0 0 0 0 0 0.05 0"/>
<feBlend mode="normal" in2="BackgroundImageFix" result="effect1_dropShadow_346_4566"/>
<feBlend mode="normal" in="SourceGraphic" in2="effect1_dropShadow_346_4566" result="shape"/>
<feColorMatrix in="SourceAlpha" type="matrix" values="0 0 0 0 0 0 0 0 0 0 0 0 0 0 0 0 0 0 127 0" result="hardAlpha"/>
<feOffset dx="4" dy="4"/>
<feGaussianBlur stdDeviation="3"/>
<feComposite in2="hardAlpha" operator="arithmetic" k2="-1" k3="1"/>
<feColorMatrix type="matrix" values="0 0 0 0 0 0 0 0 0 0 0 0 0 0 0 0 0 0 0.08 0"/>
<feBlend mode="normal" in2="shape" result="effect2_innerShadow_346_4566"/>
</filter>
<filter id="filter7_d_346_4566" x="310.273" y="204.143" width="69.1035" height="69.103" filterUnits="userSpaceOnUse" color-interpolation-filters="sRGB">
<feFlood flood-opacity="0" result="BackgroundImageFix"/>
<feColorMatrix in="SourceAlpha" type="matrix" values="0 0 0 0 0 0 0 0 0 0 0 0 0 0 0 0 0 0 127 0" result="hardAlpha"/>
<feOffset dx="4" dy="4"/>
<feGaussianBlur stdDeviation="1.5"/>
<feComposite in2="hardAlpha" operator="out"/>
<feColorMatrix type="matrix" values="0 0 0 0 0 0 0 0 0 0 0 0 0 0 0 0 0 0 0.05 0"/>
<feBlend mode="normal" in2="BackgroundImageFix" result="effect1_dropShadow_346_4566"/>
<feBlend mode="normal" in="SourceGraphic" in2="effect1_dropShadow_346_4566" result="shape"/>
</filter>
<filter id="filter8_di_346_4566" x="291.729" y="178.636" width="108.154" height="107.118" filterUnits="userSpaceOnUse" color-interpolation-filters="sRGB">
<feFlood flood-opacity="0" result="BackgroundImageFix"/>
<feColorMatrix in="SourceAlpha" type="matrix" values="0 0 0 0 0 0 0 0 0 0 0 0 0 0 0 0 0 0 127 0" result="hardAlpha"/>
<feOffset dx="5" dy="-3"/>
<feGaussianBlur stdDeviation="4.5"/>
<feComposite in2="hardAlpha" operator="out"/>
<feColorMatrix type="matrix" values="0 0 0 0 0 0 0 0 0 0 0 0 0 0 0 0 0 0 0.05 0"/>
<feBlend mode="normal" in2="BackgroundImageFix" result="effect1_dropShadow_346_4566"/>
<feBlend mode="normal" in="SourceGraphic" in2="effect1_dropShadow_346_4566" result="shape"/>
<feColorMatrix in="SourceAlpha" type="matrix" values="0 0 0 0 0 0 0 0 0 0 0 0 0 0 0 0 0 0 127 0" result="hardAlpha"/>
<feOffset dx="4" dy="4"/>
<feGaussianBlur stdDeviation="3"/>
<feComposite in2="hardAlpha" operator="arithmetic" k2="-1" k3="1"/>
<feColorMatrix type="matrix" values="0 0 0 0 0 0 0 0 0 0 0 0 0 0 0 0 0 0 0.08 0"/>
<feBlend mode="normal" in2="shape" result="effect2_innerShadow_346_4566"/>
</filter>
<filter id="filter9_d_346_4566" x="321.672" y="216.578" width="45.2695" height="44.2329" filterUnits="userSpaceOnUse" color-interpolation-filters="sRGB">
<feFlood flood-opacity="0" result="BackgroundImageFix"/>
<feColorMatrix in="SourceAlpha" type="matrix" values="0 0 0 0 0 0 0 0 0 0 0 0 0 0 0 0 0 0 127 0" result="hardAlpha"/>
<feOffset dx="4" dy="4"/>
<feGaussianBlur stdDeviation="1.5"/>
<feComposite in2="hardAlpha" operator="out"/>
<feColorMatrix type="matrix" values="0 0 0 0 0 0 0 0 0 0 0 0 0 0 0 0 0 0 0.05 0"/>
<feBlend mode="normal" in2="BackgroundImageFix" result="effect1_dropShadow_346_4566"/>
<feBlend mode="normal" in="SourceGraphic" in2="effect1_dropShadow_346_4566" result="shape"/>
</filter>
<filter id="filter10_di_346_4566" x="3.29102" y="14.9429" width="70.7773" height="95.6475" filterUnits="userSpaceOnUse" color-interpolation-filters="sRGB">
<feFlood flood-opacity="0" result="BackgroundImageFix"/>
<feColorMatrix in="SourceAlpha" type="matrix" values="0 0 0 0 0 0 0 0 0 0 0 0 0 0 0 0 0 0 127 0" result="hardAlpha"/>
<feOffset dx="5" dy="-3"/>
<feGaussianBlur stdDeviation="4.5"/>
<feComposite in2="hardAlpha" operator="out"/>
<feColorMatrix type="matrix" values="0 0 0 0 0 0 0 0 0 0 0 0 0 0 0 0 0 0 0.05 0"/>
<feBlend mode="normal" in2="BackgroundImageFix" result="effect1_dropShadow_346_4566"/>
<feBlend mode="normal" in="SourceGraphic" in2="effect1_dropShadow_346_4566" result="shape"/>
<feColorMatrix in="SourceAlpha" type="matrix" values="0 0 0 0 0 0 0 0 0 0 0 0 0 0 0 0 0 0 127 0" result="hardAlpha"/>
<feOffset dx="4" dy="4"/>
<feGaussianBlur stdDeviation="3"/>
<feComposite in2="hardAlpha" operator="arithmetic" k2="-1" k3="1"/>
<feColorMatrix type="matrix" values="0 0 0 0 0 0 0 0 0 0 0 0 0 0 0 0 0 0 0.08 0"/>
<feBlend mode="normal" in2="shape" result="effect2_innerShadow_346_4566"/>
</filter>
<filter id="filter11_di_346_4566" x="141.828" y="15.0264" width="107.525" height="138.878" filterUnits="userSpaceOnUse" color-interpolation-filters="sRGB">
<feFlood flood-opacity="0" result="BackgroundImageFix"/>
<feColorMatrix in="SourceAlpha" type="matrix" values="0 0 0 0 0 0 0 0 0 0 0 0 0 0 0 0 0 0 127 0" result="hardAlpha"/>
<feOffset dx="5" dy="-3"/>
<feGaussianBlur stdDeviation="4.5"/>
<feComposite in2="hardAlpha" operator="out"/>
<feColorMatrix type="matrix" values="0 0 0 0 0 0 0 0 0 0 0 0 0 0 0 0 0 0 0.05 0"/>
<feBlend mode="normal" in2="BackgroundImageFix" result="effect1_dropShadow_346_4566"/>
<feBlend mode="normal" in="SourceGraphic" in2="effect1_dropShadow_346_4566" result="shape"/>
<feColorMatrix in="SourceAlpha" type="matrix" values="0 0 0 0 0 0 0 0 0 0 0 0 0 0 0 0 0 0 127 0" result="hardAlpha"/>
<feOffset dx="4" dy="4"/>
<feGaussianBlur stdDeviation="3"/>
<feComposite in2="hardAlpha" operator="arithmetic" k2="-1" k3="1"/>
<feColorMatrix type="matrix" values="0 0 0 0 0 0 0 0 0 0 0 0 0 0 0 0 0 0 0.08 0"/>
<feBlend mode="normal" in2="shape" result="effect2_innerShadow_346_4566"/>
</filter>
<filter id="filter12_d_346_4566" x="81.4102" y="-16.4888" width="216.377" height="223.214" filterUnits="userSpaceOnUse" color-interpolation-filters="sRGB">
<feFlood flood-opacity="0" result="BackgroundImageFix"/>
<feColorMatrix in="SourceAlpha" type="matrix" values="0 0 0 0 0 0 0 0 0 0 0 0 0 0 0 0 0 0 127 0" result="hardAlpha"/>
<feOffset dx="4" dy="4"/>
<feGaussianBlur stdDeviation="1.5"/>
<feComposite in2="hardAlpha" operator="out"/>
<feColorMatrix type="matrix" values="0 0 0 0 0.298039 0 0 0 0 0.4 0 0 0 0 0.333333 0 0 0 0.08 0"/>
<feBlend mode="normal" in2="BackgroundImageFix" result="effect1_dropShadow_346_4566"/>
<feBlend mode="normal" in="SourceGraphic" in2="effect1_dropShadow_346_4566" result="shape"/>
</filter>
<clipPath id="clip0_346_4566">
<rect width="386" height="544" fill="white"/>
</clipPath>
</defs>
</svg>
