<svg width="45" height="44" viewBox="0 0 45 44" fill="none" xmlns="http://www.w3.org/2000/svg">
<path d="M41.4199 35.0625H40.0449V6.1875H34.5449V35.0625H30.4199V19.9375H24.9199V35.0625H20.7949V14.4375H15.2949V35.0625H11.1699V28.1875H5.66992V35.0625H4.29492C3.93025 35.0625 3.58051 35.2074 3.32265 35.4652C3.06479 35.7231 2.91992 36.0728 2.91992 36.4375C2.91992 36.8022 3.06479 37.1519 3.32265 37.4098C3.58051 37.6676 3.93025 37.8125 4.29492 37.8125H41.4199C41.7846 37.8125 42.1343 37.6676 42.3922 37.4098C42.6501 37.1519 42.7949 36.8022 42.7949 36.4375C42.7949 36.0728 42.6501 35.7231 42.3922 35.4652C42.1343 35.2074 41.7846 35.0625 41.4199 35.0625Z" fill="#EEECDE"/>
</svg>
