<svg width="41" height="40" viewBox="0 0 41 40" fill="none" xmlns="http://www.w3.org/2000/svg">
<path d="M29.25 10.0131C24.9725 10.0131 22.5706 12.7006 20.625 15.7894L18.585 19.2619C16.2875 23.2306 14.7481 25.625 11.75 25.625C8 25.625 5.5 23.2725 5.5 20.0025C5.48968 19.1788 5.64428 18.3613 5.95469 17.5982C6.2651 16.8351 6.72504 16.1419 7.30744 15.5592C7.88984 14.9766 8.58292 14.5164 9.34588 14.2057C10.1088 13.8949 10.9263 13.74 11.75 13.75C13 13.75 14.8206 14.5438 16.3037 16.4031L18.585 19.2619L18.8769 18.7569C19.4438 17.775 20.0119 16.7631 20.625 15.7894L20.6469 15.7519L19.2981 14.0644C17.1163 11.33 14.25 10 11.75 10V10.0131C9.1031 10.0246 6.56775 11.0805 4.69516 12.9512C2.82257 14.8219 1.76414 17.3562 1.75 20.0031C1.75 25.34 6.125 29.375 11.75 29.375C17.375 29.375 19.7619 24.7287 22.1263 20.63C24.5894 16.3575 26.125 13.7631 29.25 13.7631C33 13.7631 35.5 16.1069 35.5 19.3775C35.5102 20.201 35.3554 21.0181 35.0449 21.7809C34.7344 22.5436 34.2743 23.2365 33.6919 23.8187C33.1095 24.4009 32.4164 24.8606 31.6535 25.1709C30.8907 25.4811 30.0735 25.6355 29.25 25.625C28 25.625 26.1313 24.825 24.6537 22.9837L22.6638 26.3088C23.5056 27.2273 24.521 27.9701 25.6515 28.4941C26.7819 29.0181 28.005 29.3131 29.25 29.3619V29.375C31.8977 29.3619 34.4332 28.3044 36.3057 26.4324C38.1781 24.5605 39.2362 22.0252 39.25 19.3775C39.25 14.0394 34.875 10.0131 29.25 10.0131Z" fill="#EEECDE"/>
</svg>
