<svg width="41" height="40" viewBox="0 0 41 40" fill="none" xmlns="http://www.w3.org/2000/svg">
<g clip-path="url(#clip0_276_4295)">
<path d="M20.5 0C16.5444 0 12.6776 1.17298 9.3886 3.37061C6.09962 5.56824 3.53617 8.69181 2.02242 12.3463C0.508666 16.0009 0.112599 20.0222 0.884303 23.9018C1.65601 27.7814 3.56082 31.3451 6.35787 34.1421C9.15492 36.9392 12.7186 38.844 16.5982 39.6157C20.4778 40.3874 24.4992 39.9913 28.1537 38.4776C31.8082 36.9638 34.9318 34.4004 37.1294 31.1114C39.327 27.8224 40.5 23.9556 40.5 20C40.5 14.6957 38.3929 9.60859 34.6421 5.85786C30.8914 2.10714 25.8043 0 20.5 0ZM36.9375 20C36.9375 23.2139 35.9845 26.3557 34.1989 29.028C32.4133 31.7003 29.8754 33.7831 26.9061 35.013C23.9368 36.243 20.6695 36.5648 17.5173 35.9378C14.3651 35.3107 11.4696 33.7631 9.19702 31.4905C6.92442 29.2179 5.37676 26.3224 4.74975 23.1702C4.12274 20.018 4.44454 16.7507 5.67447 13.7814C6.90439 10.8121 8.98719 8.27419 11.6595 6.48862C14.3318 4.70305 17.4736 3.75 20.6875 3.75C24.9973 3.75 29.1305 5.46205 32.178 8.50951C35.2255 11.557 36.9375 15.6902 36.9375 20Z" fill="#EEECDE"/>
<path d="M20.5 7.1875C17.9659 7.1875 15.4888 7.93894 13.3818 9.3468C11.2748 10.7547 9.63255 12.7557 8.6628 15.0969C7.69305 17.438 7.43932 20.0142 7.93369 22.4996C8.42807 24.985 9.64834 27.2679 11.4402 29.0598C13.2321 30.8517 15.515 32.0719 18.0004 32.5663C20.4858 33.0607 23.062 32.807 25.4031 31.8372C27.7443 30.8675 29.7454 29.2252 31.1532 27.1182C32.5611 25.0112 33.3125 22.5341 33.3125 20C33.3125 16.6019 31.9626 13.343 29.5598 10.9402C27.157 8.53738 23.8981 7.1875 20.5 7.1875ZM20.5 28.4375C18.8312 28.4375 17.1999 27.9426 15.8124 27.0155C14.4248 26.0884 13.3434 24.7706 12.7048 23.2289C12.0662 21.6871 11.8991 19.9906 12.2246 18.3539C12.5502 16.7172 13.3538 15.2138 14.5338 14.0338C15.7138 12.8538 17.2172 12.0502 18.8539 11.7246C20.4906 11.3991 22.1871 11.5662 23.7289 12.2048C25.2706 12.8434 26.5884 13.9248 27.5155 15.3124C28.4427 16.6999 28.9375 18.3312 28.9375 20C28.9375 22.2378 28.0486 24.3839 26.4662 25.9662C24.8839 27.5486 22.7378 28.4375 20.5 28.4375Z" fill="#EEECDE"/>
<path d="M20.5 25C23.2614 25 25.5 22.7614 25.5 20C25.5 17.2386 23.2614 15 20.5 15C17.7386 15 15.5 17.2386 15.5 20C15.5 22.7614 17.7386 25 20.5 25Z" fill="#EEECDE"/>
</g>
<defs>
<clipPath id="clip0_276_4295">
<rect width="40" height="40" fill="white" transform="translate(0.5)"/>
</clipPath>
</defs>
</svg>
