<svg width="41" height="40" viewBox="0 0 41 40" fill="none" xmlns="http://www.w3.org/2000/svg">
<g clip-path="url(#clip0_276_4309)">
<path d="M34.6424 5.8574C31.8454 3.06028 28.2817 1.15539 24.4021 0.383625C20.5224 -0.388139 16.5011 0.00788432 12.8465 1.52162C9.19194 3.03535 6.06832 5.5988 3.87066 8.8878C1.673 12.1768 0.5 16.0436 0.5 19.9993C0.5 23.9549 1.673 27.8218 3.87066 31.1108C6.06832 34.3998 9.19194 36.9632 12.8465 38.4769C16.5011 39.9907 20.5224 40.3867 24.4021 39.6149C28.2817 38.8432 31.8454 36.9383 34.6424 34.1412C38.393 30.3904 40.5 25.3035 40.5 19.9993C40.5 14.6951 38.393 9.60811 34.6424 5.8574ZM30.1074 16.5349L19.2449 27.3974L12.7405 20.893C12.6211 20.7777 12.5259 20.6398 12.4604 20.4873C12.3949 20.3348 12.3604 20.1708 12.359 20.0048C12.3575 19.8388 12.3891 19.6742 12.452 19.5206C12.5148 19.367 12.6077 19.2274 12.725 19.11C12.8424 18.9927 12.982 18.8999 13.1356 18.837C13.2892 18.7741 13.4538 18.7425 13.6198 18.744C13.7857 18.7454 13.9498 18.7799 14.1023 18.8454C14.2548 18.9109 14.3927 19.0061 14.508 19.1255L19.2443 23.8618L28.3399 14.768C28.5762 14.5435 28.8909 14.4201 29.2168 14.4242C29.5428 14.4283 29.8542 14.5596 30.0847 14.7901C30.3153 15.0205 30.4467 15.3319 30.4509 15.6579C30.4551 15.9838 30.3319 16.2985 30.1074 16.5349Z" fill="#EEECDE"/>
</g>
<defs>
<clipPath id="clip0_276_4309">
<rect width="40" height="40" fill="white" transform="translate(0.5)"/>
</clipPath>
</defs>
</svg>
