<svg width="45" height="44" viewBox="0 0 45 44" fill="none" xmlns="http://www.w3.org/2000/svg">
<path d="M26.6937 35.1998C21.1937 34.4435 21.1938 32.4498 21.1938 31.3498V30.731C22.5943 29.4341 23.5959 27.7646 24.0812 25.9185C25.7312 25.9185 26.1437 22.4123 26.1437 21.931C26.1437 21.4498 26.0063 19.456 25.25 19.2498C28 9.62479 19.75 5.49979 12.6 10.4498C9.575 10.4498 8.6125 14.8498 9.7125 19.2498C8.95625 19.2498 8.81875 21.3123 8.81875 21.8623C8.81875 22.4123 9.23125 25.8498 10.8813 25.8498C11.4313 27.8435 12.9438 29.4935 14.25 30.6623V31.3498C14.25 32.4498 13.8375 34.5123 8.26875 35.1998C2.7 35.8873 1.875 41.2498 1.875 41.2498H32.125C32.125 41.2498 32.1937 35.956 26.6937 35.1998Z" fill="#EEECDE"/>
<path d="M37.4203 30.2501C31.9203 29.1501 32.1266 26.9501 32.1266 25.8501V24.7501C35.0922 24.7194 38.0446 24.3504 40.9266 23.6501C38.6578 21.3814 36.5266 20.4189 36.5266 10.9314C36.5266 -0.274876 25.5266 3.23137 25.5266 3.23137C24.5488 3.18477 23.5753 3.38746 22.6974 3.8204C21.8195 4.25333 21.066 4.90231 20.5078 5.70637C22.9126 6.06603 25.0827 7.34836 26.5578 9.28137C28.4141 11.6876 28.9641 14.9876 28.2078 18.6314C28.66 19.6487 28.8942 20.7494 28.8953 21.8626C28.8953 23.2376 28.3453 26.6064 26.2141 27.9814C25.6963 29.3346 24.9524 30.5899 24.0141 31.6939C24.9398 32.1499 25.9423 32.4296 26.9703 32.5189C28.1466 32.6132 29.2908 32.9488 30.3316 33.5048C31.3725 34.0607 32.2878 34.825 33.0203 35.7501H43.1266C43.1266 35.7501 43.1266 31.4189 37.4203 30.2501Z" fill="#EEECDE"/>
</svg>
