<svg width="41" height="40" viewBox="0 0 41 40" fill="none" xmlns="http://www.w3.org/2000/svg">
<g clip-path="url(#clip0_276_3765)">
<path d="M20.9202 28.6838C27.5145 17.4507 26.2033 10.1463 20.9202 0.890705C20.914 0.880341 20.9053 0.871755 20.8948 0.86579C20.8844 0.859826 20.8725 0.856689 20.8605 0.856689C20.8484 0.856689 20.8366 0.859826 20.8261 0.86579C20.8157 0.871755 20.8069 0.880341 20.8008 0.890705C15.517 10.1463 14.2064 17.4532 20.8008 28.6838C20.8071 28.6939 20.816 28.7022 20.8264 28.7079C20.8368 28.7137 20.8486 28.7167 20.8605 28.7167C20.8724 28.7167 20.8841 28.7137 20.8945 28.7079C20.905 28.7022 20.9138 28.6939 20.9202 28.6838Z" fill="#EEECDE"/>
<path d="M38.2168 15.5574C38.2199 15.5464 38.2202 15.5348 38.2177 15.5236C38.2152 15.5125 38.21 15.5021 38.2025 15.4935C38.195 15.4848 38.1854 15.4782 38.1747 15.4742C38.164 15.4702 38.1525 15.4689 38.1411 15.4705C34.5971 16.2319 31.3492 18.0032 28.79 20.5704C26.2308 23.1376 24.4696 26.391 23.7193 29.9374C23.717 29.9494 23.7179 29.9618 23.7219 29.9734C23.7258 29.985 23.7326 29.9953 23.7417 30.0035C23.7508 30.0116 23.7619 30.0173 23.7738 30.02C23.7858 30.0226 23.7982 30.0222 23.8099 30.0186C32.8699 27.0724 36.1699 23.3299 38.2168 15.5574ZM17.9199 30.0205C17.9316 30.024 17.944 30.0243 17.9559 30.0216C17.9678 30.0188 17.9788 30.0131 17.9879 30.0049C17.9969 29.9966 18.0037 29.9862 18.0075 29.9746C18.0114 29.963 18.0122 29.9506 18.0099 29.9386C17.2573 26.3904 15.4935 23.136 12.9315 20.5685C10.3695 18.001 7.11894 16.2301 3.57238 15.4699C3.56105 15.4683 3.54951 15.4696 3.5388 15.4736C3.52809 15.4776 3.51854 15.4842 3.51104 15.4928C3.50353 15.5015 3.49829 15.5118 3.49579 15.523C3.4933 15.5342 3.49363 15.5458 3.49676 15.5568C5.54488 23.3299 8.85738 27.0724 17.9199 30.0205Z" fill="#EEECDE"/>
<path d="M0.884992 32.7312C0.875311 32.7368 0.867137 32.7446 0.861177 32.7541C0.855218 32.7635 0.851653 32.7743 0.850791 32.7854C0.849929 32.7966 0.851796 32.8078 0.856231 32.818C0.860666 32.8283 0.867535 32.8373 0.876242 32.8443C4.05187 35.1493 10.9387 37.5943 18.2712 32.8262C18.2811 32.8193 18.2891 32.8101 18.2944 32.7993C18.2997 32.7884 18.3022 32.7765 18.3016 32.7644C18.3009 32.7524 18.2973 32.7408 18.2909 32.7306C18.2845 32.7204 18.2755 32.712 18.265 32.7062C10.9369 28.8193 6.88749 29.0693 0.884992 32.7312ZM40.8144 32.7306C33.49 28.8424 29.9019 29.0462 23.9044 32.7081C23.8947 32.7136 23.8865 32.7215 23.8806 32.731C23.8746 32.7404 23.871 32.7512 23.8702 32.7623C23.8693 32.7735 23.8712 32.7846 23.8756 32.7949C23.88 32.8052 23.8869 32.8142 23.8956 32.8212C27.0631 35.1274 33.4925 37.6199 40.82 32.8506C40.8299 32.8438 40.8379 32.8345 40.8433 32.8238C40.8487 32.813 40.8512 32.801 40.8506 32.789C40.8501 32.777 40.8464 32.7653 40.8401 32.7551C40.8337 32.7448 40.8249 32.7364 40.8144 32.7306Z" fill="#EEECDE"/>
<path d="M20.8574 30.625C20.5259 30.625 20.208 30.7567 19.9735 30.9911C19.7391 31.2255 19.6074 31.5435 19.6074 31.875V38.75C19.6074 39.0815 19.7391 39.3995 19.9735 39.6339C20.208 39.8683 20.5259 40 20.8574 40C21.1889 40 21.5069 39.8683 21.7413 39.6339C21.9757 39.3995 22.1074 39.0815 22.1074 38.75V31.875C22.1074 31.5435 21.9757 31.2255 21.7413 30.9911C21.5069 30.7567 21.1889 30.625 20.8574 30.625Z" fill="#EEECDE"/>
</g>
<defs>
<clipPath id="clip0_276_3765">
<rect width="40" height="40" fill="white" transform="translate(0.857422)"/>
</clipPath>
</defs>
</svg>
